<svg xmlns="http://www.w3.org/2000/svg" viewBox="0 0 373.72 125.11"><defs><style>.cls-1{fill:#1e1e1e;}</style></defs><g id="Layer_2" data-name="Layer 2"><g id="Ñëîé_1" data-name="Ñëîé 1"><path class="cls-1" d="M47,15.61a46.95,46.95,0,1,0,47,47A47,47,0,0,0,47,15.61Zm45,47a45,45,0,1,1-45-45A45,45,0,0,1,91.92,62.56Z"/><path class="cls-1" d="M47,20.66a41.9,41.9,0,1,0,41.9,41.9A41.94,41.94,0,0,0,47,20.66Zm39.92,41.9A39.92,39.92,0,1,1,47,22.63,40,40,0,0,1,86.87,62.56Z"/><path class="cls-1" d="M47,76.28a6.87,6.87,0,1,0,6.86,6.87A6.88,6.88,0,0,0,47,76.28Zm0,12.51a5.65,5.65,0,1,1,5.65-5.64A5.65,5.65,0,0,1,47,88.79Z"/><path class="cls-1" d="M47,35.1A6.87,6.87,0,1,0,53.81,42,6.88,6.88,0,0,0,47,35.1Zm0,12.51A5.65,5.65,0,1,1,52.6,42,5.65,5.65,0,0,1,47,47.61Z"/><path class="cls-1" d="M26.36,55.69a6.87,6.87,0,1,0,6.86,6.87A6.87,6.87,0,0,0,26.36,55.69Zm0,12.51A5.65,5.65,0,1,1,32,62.56,5.65,5.65,0,0,1,26.36,68.2Z"/><path class="cls-1" d="M67.54,55.69a6.87,6.87,0,1,0,6.86,6.87A6.88,6.88,0,0,0,67.54,55.69Zm0,12.51a5.65,5.65,0,1,1,5.64-5.64A5.65,5.65,0,0,1,67.54,68.2Z"/><rect class="cls-1" x="43.44" y="82.42" width="7.01" height="1.44"/><polygon class="cls-1" points="47.55 38.24 46.33 38.24 46.33 41.39 43.14 41.39 43.14 42.56 46.33 42.56 46.33 45.69 47.55 45.69 47.55 42.56 50.76 42.56 50.76 41.39 47.55 41.39 47.55 38.24"/><path class="cls-1" d="M67.54,61a1.52,1.52,0,1,0,1.51,1.52A1.52,1.52,0,0,0,67.54,61Z"/><path class="cls-1" d="M30.44,59,29,60a3.48,3.48,0,0,0-2.54-1.1,3.52,3.52,0,0,0-3.12,5.17l-1.77,1.27.71,1L24.08,65A3.52,3.52,0,0,0,30,62.44a3.48,3.48,0,0,0-.3-1.42L31.15,60Zm-4,5.77a2.29,2.29,0,0,1-1.35-.43l3.55-2.56a2.26,2.26,0,0,1,.1.69A2.3,2.3,0,0,1,26.45,64.74Zm-2.12-1.38a2.23,2.23,0,0,1-.19-.92,2.3,2.3,0,0,1,2.31-2.31,2.26,2.26,0,0,1,1.54.6Z"/><path class="cls-1" d="M229.76,11.06C222.62,3.62,210.38,0,192.32,0,175,0,163.08,3.59,155.9,11c-10,10.25-9.53,26.1-9.06,42.89.09,3.48.19,7.08.19,10.61,0,12.89.63,26.2,5.12,36.41,0,.35-.05.69-.05,1,0,6.36,4.17,12.24,11.74,16.55s17.82,6.65,29,6.65c11,0,21-2.33,28.35-6.56s11.31-9.87,11.61-16.07c4.46-9.74,4.81-21.91,4.81-38,0-4.14.18-8.35.35-12.42C238.62,36.05,239.24,20.94,229.76,11.06ZM192.47,2c14.89,0,25.27,4.22,25.27,8s-10.38,8-25.27,8-25.27-4.22-25.27-8S177.57,2,192.47,2Zm.37,121.31c-19.84,0-35.77-7.77-38.51-18.18l.37.57.24.39c.21.31.41.62.62.91l.11.16c.25.35.5.7.77,1l.23.3.57.69.31.36c.18.2.35.4.53.59s.23.25.35.38l.53.54c.12.12.24.25.37.37l.54.51.39.35.57.49.4.34.62.48.39.3c.22.17.46.34.69.5l.35.24c.33.23.66.45,1,.66l.06,0c.37.23.75.45,1.13.67l.33.18.83.45.44.22.76.37.49.22c.25.12.49.23.75.33l.52.22.76.3.54.21.8.28.54.19.85.26.53.16c.31.1.63.18,1,.27l.45.13,1.42.34h0l1.5.32.48.09,1.06.19.6.1,1,.15.66.08,1,.13.69.07,1,.1.71.06,1,.08.71,0,1.08,0,.7,0,1.22,0,.59,0,1.86,0,1.85,0h.59l1.23,0,.66,0,1.13,0,.66,0,1.13-.08.58,0,1.43-.13.24,0,1.61-.19.5-.06,1.08-.15.59-.09,1-.16.59-.1.95-.19.54-.11q.56-.1,1.08-.24l.36-.08c.47-.11.92-.23,1.37-.35l.43-.12.93-.26.52-.16.8-.27.52-.17.78-.29.49-.18.85-.34.37-.16c.39-.16.78-.34,1.16-.52l.33-.16.81-.4.43-.23.67-.37c.15-.08.3-.16.44-.25l.64-.39L222,115l.67-.45.34-.23.95-.69.22-.18c.24-.18.48-.37.71-.57l.34-.28.56-.5.35-.32.53-.5L227,111c.19-.19.37-.38.55-.58l.26-.28c.26-.29.52-.58.77-.89l.07-.08c.2-.24.4-.49.59-.74C224.48,117.22,210.31,123.3,192.84,123.3ZM236.14,52c-.17,4.09-.34,8.33-.34,12.5,0,16-.34,28-4.71,37.41-5.69,12.3-18,18-38.77,18a71.7,71.7,0,0,1-13.71-1.18c-12.26-2.37-20.25-8.36-24.72-18.37s-5-23.1-5-35.88c0-3.56-.1-7.17-.2-10.66-.45-16.4-.88-31.88,8.55-41.57a29.58,29.58,0,0,1,11.45-7.07c-2.09,1.41-3.27,3.05-3.27,4.82,0,5.6,11.64,9.83,27.09,9.83s27.08-4.23,27.08-9.83c0-1.92-1.38-3.68-3.81-5.17a29.93,29.93,0,0,1,12.71,7.49C237.4,21.64,236.79,36.37,236.14,52Z"/><path class="cls-1" d="M192.47,12c4.78,0,9.63-1.36,9.63-3.94s-4.85-3.95-9.63-3.95-9.64,1.36-9.64,3.95S187.68,12,192.47,12Zm0-6.07c5.15,0,7.81,1.49,7.81,2.13s-2.66,2.12-7.81,2.12-7.82-1.49-7.82-2.12S187.31,6,192.47,6Z"/><path class="cls-1" d="M332.87,8.2c1.18,0,2.14-.34,2.14-.75s-1-.74-2.14-.74-2.14.33-2.14.74S331.69,8.2,332.87,8.2Z"/><path class="cls-1" d="M332.92,12c-1.18,0-2.14.34-2.14.75s1,.75,2.14.75,2.14-.34,2.14-.75S334.1,12,332.92,12Z"/><path class="cls-1" d="M323.66,10.89c1.18,0,2.14-.34,2.14-.75s-1-.75-2.14-.75-2.14.34-2.14.75S322.48,10.89,323.66,10.89Z"/><path class="cls-1" d="M342.48,10.89c1.18,0,2.14-.34,2.14-.75s-1-.75-2.14-.75-2.14.34-2.14.75S341.3,10.89,342.48,10.89Z"/><path class="cls-1" d="M372.91,74.38h0l-.09-.41c0-.26-.06-.43-.07-.51l-.06-.38L368.23,11h-.05C367.44,4,349.71.22,333,.22c-17.07,0-35.21,3.94-35.21,11.24a2.81,2.81,0,0,0,0,.29L293.21,74h0c-.58,4.12-3.42,27.58,5.36,40.75l.5.73c.17.22,1.37,1.57,1.37,1.57L305,122.3l.28.07c.4.1,10,2.52,28.38,2.52s27.08-2.43,27.44-2.53l.27-.07,6.1-7.51C376,102.06,373.55,79.31,372.91,74.38ZM333,2.08c19.65,0,33.35,4.94,33.35,9.38s-13.7,9.37-33.35,9.37c-19.31,0-32.85-4.76-33.33-9.14l.06-.8C300.83,6.61,314.18,2.08,333,2.08Zm0,20.61c14.09,0,28.91-2.68,33.65-7.72l4.19,57.83c-6,.81-17.46,1.68-38.66,1.53-3.5,0-6.7-.06-9.62-.12h-.19l-1.36,0h-.51l-1.06,0h-.74l-.81,0-1,0-.54,0-1.18,0h-.3l-1.41,0h0c-10.05-.37-15.43-.94-18.3-1.46l4.23-57.46C304.25,20,319,22.69,333,22.69ZM295.05,74.38c3.08.53,8.75,1.11,19.18,1.47h.35l.89,0,.74,0,.67,0,1.05,0,.49,0,1.34,0h.3l1.62,0h.13c3.13.06,6.58.11,10.4.13l4.74,0c15,0,26.47-.52,34.12-1.56.66,5.06,3.19,29-6.3,40.7-2,.4-13.53,2.58-31.08,2.6h-.14c-18.36,0-30.19-2.21-32.23-2.62l-.27-.31C291.71,103,294.47,78.71,295.05,74.38Zm65.3,46.26c-1.57.4-10.26,2.39-26.67,2.39s-25.95-2-27.65-2.4l-2.64-3a188.86,188.86,0,0,0,27.38,2.18h3A180.52,180.52,0,0,0,363,117.59Z"/></g></g></svg>