<svg xmlns="http://www.w3.org/2000/svg" viewBox="0 0 799.01 279.21"><defs><style>.cls-1{fill:#c6c6c6;}.cls-2{fill:#fff;}.cls-3{fill:#706f6f;}.cls-4{fill:#dadada;}.cls-5{fill:#ededed;}</style></defs><g id="Layer_2" data-name="Layer 2"><g id="Ñëîé_1" data-name="Ñëîé 1"><circle class="cls-1" cx="107.5" cy="139.61" r="107.5"/><circle class="cls-2" cx="107.5" cy="139.61" r="95.68"/><path class="cls-1" d="M107.49,203a15.24,15.24,0,1,1,15.24-15.24A15.25,15.25,0,0,1,107.49,203Zm0-29.26a14,14,0,1,0,14,14A14,14,0,0,0,107.49,173.74Z"/><path class="cls-1" d="M107.49,106.69a15.24,15.24,0,1,1,15.24-15.24A15.25,15.25,0,0,1,107.49,106.69Zm0-29.26a14,14,0,1,0,14,14A14,14,0,0,0,107.49,77.43Z"/><path class="cls-1" d="M59.34,154.84a15.24,15.24,0,1,1,15.24-15.23A15.25,15.25,0,0,1,59.34,154.84Zm0-29.26a14,14,0,1,0,14,14A14,14,0,0,0,59.34,125.58Z"/><path class="cls-1" d="M155.65,154.84a15.24,15.24,0,1,1,15.24-15.23A15.25,15.25,0,0,1,155.65,154.84Zm0-29.26a14,14,0,1,0,14,14A14,14,0,0,0,155.65,125.58Z"/><path class="cls-1" d="M100.12,186.89h14.75v1.75H100.12Z"/><path class="cls-1" d="M115.59,92h-7.51v7.32h-1.21V92H99.4V90.91h7.47V83.55h1.21v7.36h7.51Z"/><circle class="cls-1" cx="155.65" cy="139.61" r="2.73"/><path class="cls-1" d="M59.54,146.75A7.43,7.43,0,1,1,67,139.32,7.43,7.43,0,0,1,59.54,146.75Zm0-13.64a6.22,6.22,0,1,0,6.21,6.21A6.22,6.22,0,0,0,59.54,133.11Z"/><rect class="cls-1" x="47.37" y="139.22" width="23.95" height="1.22" transform="translate(-70.46 60.92) rotate(-35.71)"/><path class="cls-3" d="M494.83,229.53c-1,27.34-37,49.68-88.47,49.68-52.19,0-90.2-22.6-90.2-50.47,0-.91,0-1.8.12-2.7,12.43,27.82,37.77,45.49,88.9,45.49C457.82,271.53,482.9,255.32,494.83,229.53Z"/><path class="cls-1" d="M505.69,144c0,32.93-.37,63-10.86,85.58-11.93,25.79-37,42-89.65,42-51.13,0-76.47-17.67-88.9-45.49-9.92-22.18-11.61-50.82-11.61-82.09C304.67,73.5,287.5,0,405.18,0,527.62,0,505.69,73.5,505.69,144Z"/><ellipse class="cls-4" cx="405.5" cy="24.05" rx="59.28" ry="20.19"/><path class="cls-2" d="M425.26,19.76c0,3.79-8.84,6.87-19.76,6.87s-19.76-3.08-19.76-6.87,8.85-6.88,19.76-6.88S425.26,16,425.26,19.76Z"/><path class="cls-1" d="M782.33,255.72s-26.63,5.73-70,5.78h-.58c-43.21,0-70.37-5.38-72.23-5.76l-1.13-1.26,0,0C614.86,225.18,624.84,164,624.84,164l0-.63c8.79,1.78,30.55,3.92,84.14,4.28,48.11.32,74-1.6,87.88-3.58C797.28,166.43,806.71,227.56,782.33,255.72Z"/><path class="cls-5" d="M796.92,164.09c-13.87,2-39.78,3.9-87.89,3.57-53.58-.36-75.35-2.49-84.14-4.28L635.12,28.63c0-12.07,33.92-21.85,75.75-21.85s75.75,9.78,75.75,21.85a6.45,6.45,0,0,1-.21,1.63c.16-.24.32-.48.46-.72L796.9,164A.31.31,0,0,1,796.92,164.09Z"/><path class="cls-3" d="M782.33,255.72l-10.1,11.35S753,272.43,712,272.43s-62.34-5.36-62.34-5.36l-10.18-11.33c1.86.38,29,5.72,72.23,5.76h.58C755.7,261.45,782.33,255.72,782.33,255.72Z"/><path class="cls-1" d="M715.35,21.77c0,.89-2.06,1.61-4.6,1.61s-4.61-.72-4.61-1.61,2.06-1.6,4.61-1.6S715.35,20.89,715.35,21.77Z"/><path class="cls-1" d="M715.46,33.23c0,.89-2.06,1.61-4.61,1.61s-4.6-.72-4.6-1.61,2.06-1.6,4.6-1.6S715.46,32.35,715.46,33.23Z"/><path class="cls-1" d="M695.54,27.56c0,.89-2.07,1.61-4.61,1.61s-4.6-.72-4.6-1.61,2.06-1.61,4.6-1.61S695.54,26.67,695.54,27.56Z"/><path class="cls-1" d="M736,27.56c0,.89-2.07,1.61-4.61,1.61s-4.6-.72-4.6-1.61,2.06-1.61,4.6-1.61S736,26.67,736,27.56Z"/></g></g></svg>