<svg height="512pt" viewBox="0 0 512 512" width="512pt" xmlns="http://www.w3.org/2000/svg"><path d="m497 256c0 133.101562-107.898438 241-241 241s-241-107.898438-241-241 107.898438-241 241-241 241 107.898438 241 241zm0 0" fill="#3d5959"/><path d="m256 15c-.003906 0-.003906 0-.003906 0v482h.003906c133.101562 0 241-107.898438 241-241s-107.898438-241-241-241zm0 0" fill="#293939"/><path d="m256 512c-68.382812 0-132.667969-26.628906-181.019531-74.980469-48.351563-48.351562-74.980469-112.640625-74.980469-181.019531s26.628906-132.667969 74.980469-181.019531c48.351562-48.351563 112.636719-74.980469 181.019531-74.980469s132.667969 26.628906 181.019531 74.980469c48.351563 48.351562 74.980469 112.640625 74.980469 181.019531s-26.628906 132.667969-74.980469 181.019531c-48.351562 48.351563-112.636719 74.980469-181.019531 74.980469zm0-482c-124.617188 0-226 101.382812-226 226s101.382812 226 226 226 226-101.382812 226-226-101.382812-226-226-226zm0 0" fill="#00acb3"/><path d="m256 96.398438c-25.988281 0-47.132812 21.144531-47.132812 47.132812 0 25.992188 21.144531 47.136719 47.132812 47.136719s47.132812-21.144531 47.132812-47.136719c0-25.988281-21.144531-47.132812-47.132812-47.132812zm0 0" fill="#c5e1e6"/><path d="m256 321.332031c-25.988281 0-47.132812 21.144531-47.132812 47.136719 0 25.988281 21.144531 47.132812 47.132812 47.132812s47.132812-21.144531 47.132812-47.132812c0-25.992188-21.144531-47.136719-47.132812-47.136719zm0 0" fill="#c5e1e6"/><path d="m368.46875 208.867188c-25.992188 0-47.132812 21.144531-47.132812 47.132812s21.140624 47.132812 47.132812 47.132812c25.988281 0 47.132812-21.144531 47.132812-47.132812s-21.144531-47.132812-47.132812-47.132812zm0 0" fill="#8db9c4"/><g fill="#c5e1e6"><path d="m143.53125 208.867188c-25.988281 0-47.132812 21.144531-47.132812 47.132812s21.144531 47.132812 47.132812 47.132812c25.992188 0 47.132812-21.144531 47.132812-47.132812s-21.140624-47.132812-47.132812-47.132812zm0 0"/><path d="m255.996094 271c-3.941406 0-7.8125-1.601562-10.601563-4.390625-2.789062-2.789063-4.398437-6.660156-4.398437-10.609375s1.609375-7.820312 4.398437-10.609375c2.789063-2.789063 6.660157-4.390625 10.601563-4.390625 3.949218 0 7.820312 1.601562 10.609375 4.390625 2.789062 2.800781 4.398437 6.660156 4.398437 10.609375s-1.609375 7.808594-4.398437 10.609375c-2.789063 2.789063-6.660157 4.390625-10.609375 4.390625zm0 0"/><path d="m255.996094 78.199219c-3.949219 0-7.8125-1.601563-10.601563-4.390625-2.800781-2.800782-4.398437-6.667969-4.398437-10.609375 0-3.9375 1.601562-7.808594 4.390625-10.609375 2.800781-2.789063 6.660156-4.390625 10.609375-4.390625 3.949218 0 7.820312 1.601562 10.609375 4.390625 2.789062 2.800781 4.390625 6.660156 4.390625 10.609375s-1.601563 7.8125-4.390625 10.609375c-2.789063 2.792968-6.660157 4.390625-10.609375 4.390625zm0 0"/><path d="m255.996094 463.800781c-3.941406 0-7.8125-1.601562-10.601563-4.390625-2.800781-2.800781-4.398437-6.660156-4.398437-10.609375s1.601562-7.8125 4.398437-10.609375c2.789063-2.792968 6.660157-4.390625 10.601563-4.390625 3.949218 0 7.808594 1.597657 10.609375 4.390625 2.789062 2.789063 4.390625 6.660156 4.390625 10.609375s-1.601563 7.820313-4.390625 10.609375c-2.800781 2.789063-6.660157 4.390625-10.609375 4.390625zm0 0"/><path d="m159.597656 104.027344c-3.941406 0-7.8125-1.597656-10.609375-4.386719-2.792969-2.800781-4.390625-6.660156-4.390625-10.613281 0-3.949219 1.597656-7.808594 4.390625-10.605469 2.796875-2.792969 6.65625-4.394531 10.609375-4.394531 3.949219 0 7.816406 1.601562 10.609375 4.394531 2.789063 2.789063 4.390625 6.65625 4.390625 10.605469 0 3.953125-1.601562 7.820312-4.390625 10.613281-2.792969 2.789063-6.660156 4.386719-10.609375 4.386719zm0 0"/></g><path d="m352.394531 437.96875c-3.949219 0-7.808593-1.597656-10.597656-4.398438-2.800781-2.789062-4.402344-6.648437-4.402344-10.601562 0-3.949219 1.601563-7.808594 4.402344-10.609375 2.789063-2.789063 6.648437-4.390625 10.597656-4.390625 3.953125 0 7.820313 1.601562 10.613281 4.390625 2.789063 2.800781 4.386719 6.660156 4.386719 10.609375 0 3.953125-1.597656 7.8125-4.386719 10.601562-2.792968 2.800782-6.660156 4.398438-10.613281 4.398438zm0 0" fill="#8db9c4"/><path d="m89.023438 174.601562c-3.9375 0-7.808594-1.601562-10.597657-4.390624-2.789062-2.800782-4.402343-6.660157-4.402343-10.609376 0-3.953124 1.613281-7.8125 4.402343-10.613281 2.789063-2.789062 6.660157-4.386719 10.597657-4.386719 3.953124 0 7.820312 1.597657 10.613281 4.386719 2.789062 2.792969 4.386719 6.660157 4.386719 10.613281 0 3.949219-1.597657 7.820313-4.386719 10.609376-2.789063 2.789062-6.660157 4.390624-10.613281 4.390624zm0 0" fill="#c5e1e6"/><path d="m422.964844 367.398438c-3.949219 0-7.808594-1.597657-10.597656-4.398438-2.792969-2.78125-4.402344-6.648438-4.402344-10.601562 0-3.949219 1.609375-7.820313 4.402344-10.609376 2.789062-2.789062 6.65625-4.390624 10.597656-4.390624 3.949218 0 7.8125 1.601562 10.609375 4.390624 2.792969 2.800782 4.390625 6.660157 4.390625 10.609376 0 3.949218-1.597656 7.8125-4.390625 10.601562-2.789063 2.800781-6.660157 4.398438-10.609375 4.398438zm0 0" fill="#8db9c4"/><path d="m63.195312 271c-3.9375 0-7.808593-1.601562-10.601562-4.390625-2.789062-2.789063-4.390625-6.660156-4.390625-10.609375s1.601563-7.820312 4.390625-10.609375c2.792969-2.789063 6.652344-4.390625 10.601562-4.390625 3.960938 0 7.820313 1.601562 10.609376 4.390625 2.789062 2.789063 4.390624 6.660156 4.390624 10.609375s-1.601562 7.820312-4.390624 10.609375c-2.789063 2.789063-6.660157 4.390625-10.609376 4.390625zm0 0" fill="#c5e1e6"/><path d="m448.796875 271c-3.941406 0-7.8125-1.601562-10.601563-4.390625-2.800781-2.789063-4.398437-6.660156-4.398437-10.609375s1.597656-7.820312 4.398437-10.609375c2.789063-2.789063 6.648438-4.390625 10.601563-4.390625 3.949219 0 7.820313 1.601562 10.609375 4.390625s4.390625 6.660156 4.390625 10.609375-1.601563 7.820312-4.390625 10.609375c-2.800781 2.789063-6.660156 4.390625-10.609375 4.390625zm0 0" fill="#8db9c4"/><path d="m89.023438 367.398438c-3.9375 0-7.808594-1.597657-10.597657-4.398438-2.789062-2.789062-4.402343-6.648438-4.402343-10.601562 0-3.949219 1.613281-7.808594 4.402343-10.609376 2.789063-2.789062 6.660157-4.390624 10.597657-4.390624 3.953124 0 7.820312 1.601562 10.613281 4.390624 2.789062 2.789063 4.398437 6.660157 4.398437 10.609376 0 3.949218-1.609375 7.8125-4.398437 10.601562-2.789063 2.800781-6.660157 4.398438-10.613281 4.398438zm0 0" fill="#c5e1e6"/><path d="m422.964844 174.601562c-3.949219 0-7.808594-1.601562-10.597656-4.390624-2.800782-2.800782-4.402344-6.660157-4.402344-10.609376 0-3.953124 1.601562-7.8125 4.402344-10.613281 2.789062-2.789062 6.648437-4.386719 10.597656-4.386719 3.953125 0 7.8125 1.597657 10.609375 4.386719 2.792969 2.792969 4.390625 6.660157 4.390625 10.613281 0 3.949219-1.597656 7.808594-4.390625 10.609376-2.789063 2.789062-6.660157 4.390624-10.609375 4.390624zm0 0" fill="#8db9c4"/><path d="m159.605469 437.96875c-3.949219 0-7.820313-1.597656-10.609375-4.398438-2.789063-2.789062-4.390625-6.648437-4.390625-10.601562 0-3.949219 1.601562-7.820312 4.390625-10.609375 2.789062-2.789063 6.660156-4.390625 10.609375-4.390625 3.941406 0 7.808593 1.601562 10.601562 4.390625 2.789063 2.789063 4.390625 6.660156 4.390625 10.609375 0 3.953125-1.601562 7.8125-4.390625 10.601562-2.792969 2.800782-6.660156 4.398438-10.601562 4.398438zm0 0" fill="#c5e1e6"/><path d="m352.40625 104.027344c-3.949219 0-7.8125-1.597656-10.609375-4.386719-2.789063-2.800781-4.390625-6.660156-4.390625-10.613281 0-3.949219 1.601562-7.808594 4.390625-10.605469 2.789063-2.792969 6.660156-4.394531 10.609375-4.394531s7.808594 1.601562 10.601562 4.394531c2.789063 2.796875 4.398438 6.65625 4.398438 10.605469 0 3.953125-1.609375 7.8125-4.398438 10.613281-2.792968 2.789063-6.652343 4.386719-10.601562 4.386719zm0 0" fill="#8db9c4"/><path d="m206.097656 84.769531c-3.953125 0-7.8125-1.597656-10.601562-4.390625-2.800782-2.789062-4.398438-6.660156-4.398438-10.609375s1.597656-7.808593 4.398438-10.609375c2.789062-2.789062 6.648437-4.390625 10.601562-4.390625 3.949219 0 7.816406 1.601563 10.609375 4.390625 2.789063 2.800782 4.390625 6.660156 4.390625 10.609375s-1.601562 7.820313-4.390625 10.609375c-2.792969 2.792969-6.660156 4.390625-10.609375 4.390625zm0 0" fill="#c5e1e6"/><path d="m305.894531 457.230469c-3.9375 0-7.808593-1.601563-10.597656-4.390625-2.800781-2.800782-4.402344-6.660156-4.402344-10.609375 0-3.953125 1.601563-7.8125 4.402344-10.609375 2.789063-2.792969 6.648437-4.390625 10.597656-4.390625 3.953125 0 7.820313 1.597656 10.613281 4.390625 2.789063 2.800781 4.386719 6.65625 4.386719 10.609375 0 3.949219-1.597656 7.808593-4.386719 10.609375-2.800781 2.789062-6.660156 4.390625-10.613281 4.390625zm0 0" fill="#8db9c4"/><path d="m119.664062 134.671875c-3.949218 0-7.808593-1.601563-10.597656-4.394531-2.800781-2.789063-4.402344-6.65625-4.402344-10.605469 0-3.953125 1.601563-7.8125 4.402344-10.613281 2.789063-2.789063 6.660156-4.386719 10.597656-4.386719 3.953126 0 7.820313 1.597656 10.609376 4.386719 2.792968 2.800781 4.390624 6.660156 4.390624 10.613281 0 3.949219-1.597656 7.816406-4.390624 10.605469-2.789063 2.792968-6.65625 4.394531-10.609376 4.394531zm0 0" fill="#c5e1e6"/><path d="m392.324219 407.328125c-3.949219 0-7.808594-1.597656-10.609375-4.398437-2.789063-2.789063-4.390625-6.660157-4.390625-10.601563 0-3.949219 1.601562-7.816406 4.390625-10.609375 2.800781-2.789062 6.660156-4.390625 10.609375-4.390625s7.8125 1.601563 10.609375 4.390625c2.792968 2.792969 4.390625 6.660156 4.390625 10.609375 0 3.941406-1.597657 7.8125-4.390625 10.601563-2.796875 2.800781-6.660156 4.398437-10.609375 4.398437zm0 0" fill="#8db9c4"/><path d="m69.765625 221.101562c-3.949219 0-7.808594-1.601562-10.601563-4.390624-2.796874-2.800782-4.398437-6.660157-4.398437-10.609376 0-3.953124 1.601563-7.820312 4.398437-10.613281 2.792969-2.789062 6.652344-4.386719 10.601563-4.386719s7.820313 1.597657 10.609375 4.386719c2.789062 2.792969 4.390625 6.660157 4.390625 10.613281 0 3.949219-1.601563 7.808594-4.390625 10.609376-2.789062 2.789062-6.660156 4.390624-10.609375 4.390624zm0 0" fill="#c5e1e6"/><path d="m442.226562 320.898438c-3.941406 0-7.8125-1.597657-10.609374-4.390626-2.789063-2.796874-4.390626-6.660156-4.390626-10.609374 0-3.949219 1.601563-7.808594 4.390626-10.609376 2.800781-2.789062 6.667968-4.390624 10.609374-4.390624 3.949219 0 7.820313 1.601562 10.609376 4.390624 2.789062 2.800782 4.390624 6.660157 4.390624 10.609376 0 3.949218-1.601562 7.8125-4.390624 10.609374-2.789063 2.792969-6.660157 4.390626-10.609376 4.390626zm0 0" fill="#8db9c4"/><path d="m69.765625 320.898438c-3.9375 0-7.808594-1.597657-10.601563-4.390626-2.789062-2.796874-4.390624-6.660156-4.390624-10.609374 0-3.949219 1.601562-7.808594 4.390624-10.609376 2.792969-2.789062 6.660157-4.390624 10.601563-4.390624 3.949219 0 7.820313 1.601562 10.609375 4.390624 2.800781 2.800782 4.398438 6.660157 4.398438 10.609376 0 3.949218-1.597657 7.8125-4.398438 10.609374-2.789062 2.792969-6.660156 4.390626-10.609375 4.390626zm0 0" fill="#c5e1e6"/><path d="m442.226562 221.101562c-3.941406 0-7.8125-1.601562-10.609374-4.390624-2.789063-2.800782-4.390626-6.660157-4.390626-10.609376 0-3.953124 1.601563-7.820312 4.390626-10.613281 2.800781-2.789062 6.667968-4.386719 10.609374-4.386719 3.949219 0 7.820313 1.597657 10.609376 4.386719 2.789062 2.792969 4.390624 6.660157 4.390624 10.613281 0 3.949219-1.601562 7.808594-4.390624 10.609376-2.789063 2.789062-6.660157 4.390624-10.609376 4.390624zm0 0" fill="#8db9c4"/><path d="m119.664062 407.328125c-3.949218 0-7.808593-1.597656-10.597656-4.398437-2.800781-2.789063-4.402344-6.648438-4.402344-10.601563 0-3.949219 1.601563-7.816406 4.402344-10.609375 2.789063-2.789062 6.648438-4.390625 10.597656-4.390625 3.953126 0 7.8125 1.601563 10.609376 4.390625 2.792968 2.792969 4.390624 6.660156 4.390624 10.609375s-1.597656 7.8125-4.390624 10.601563c-2.796876 2.800781-6.65625 4.398437-10.609376 4.398437zm0 0" fill="#c5e1e6"/><path d="m392.324219 134.671875c-3.949219 0-7.808594-1.601563-10.597657-4.394531-2.792968-2.789063-4.390624-6.65625-4.390624-10.605469 0-3.953125 1.597656-7.8125 4.390624-10.613281 2.789063-2.789063 6.660157-4.386719 10.597657-4.386719 3.949219 0 7.820312 1.597656 10.609375 4.386719 2.792968 2.800781 4.390625 6.660156 4.390625 10.613281 0 3.949219-1.597657 7.816406-4.390625 10.605469-2.789063 2.792968-6.660156 4.394531-10.609375 4.394531zm0 0" fill="#8db9c4"/><path d="m206.097656 457.230469c-3.941406 0-7.8125-1.601563-10.601562-4.390625-2.800782-2.800782-4.398438-6.671875-4.398438-10.609375 0-3.953125 1.597656-7.820313 4.398438-10.609375 2.789062-2.792969 6.660156-4.390625 10.601562-4.390625 3.949219 0 7.816406 1.597656 10.609375 4.390625 2.789063 2.789062 4.390625 6.65625 4.390625 10.609375 0 3.9375-1.601562 7.808593-4.390625 10.609375-2.792969 2.789062-6.660156 4.390625-10.609375 4.390625zm0 0" fill="#c5e1e6"/><path d="m305.894531 84.769531c-3.9375 0-7.808593-1.597656-10.597656-4.398437-2.789063-2.789063-4.402344-6.648438-4.402344-10.601563 0-3.949219 1.613281-7.808593 4.402344-10.609375 2.789063-2.789062 6.660156-4.390625 10.597656-4.390625 3.953125 0 7.820313 1.601563 10.613281 4.390625 2.789063 2.800782 4.398438 6.660156 4.398438 10.609375 0 3.941407-1.609375 7.8125-4.398438 10.601563-2.792968 2.800781-6.660156 4.398437-10.613281 4.398437zm0 0" fill="#8db9c4"/><path d="m437.019531 74.980469c-48.351562-48.351563-112.636719-74.980469-181.019531-74.980469-.003906 0-.003906 0-.003906 0v30h.003906c124.617188 0 226 101.382812 226 226s-101.382812 226-226 226c-.003906 0-.003906 0-.003906 0v30h.003906c68.382812 0 132.667969-26.628906 181.019531-74.980469 48.351563-48.351562 74.980469-112.640625 74.980469-181.019531s-26.628906-132.667969-74.980469-181.019531zm0 0" fill="#008186"/><path d="m303.132812 143.53125c0-25.988281-21.144531-47.132812-47.132812-47.132812-.003906 0-.003906 0-.003906 0v94.269531h.003906c25.988281 0 47.132812-21.144531 47.132812-47.136719zm0 0" fill="#8db9c4"/><path d="m303.132812 368.46875c0-25.992188-21.144531-47.136719-47.132812-47.136719-.003906 0-.003906 0-.003906 0v94.269531h.003906c25.988281 0 47.132812-21.144531 47.132812-47.132812zm0 0" fill="#8db9c4"/><path d="m270.996094 63.199219c0-3.949219-1.601563-7.808594-4.390625-10.609375-2.789063-2.789063-6.65625-4.390625-10.605469-4.390625v30c3.949219 0 7.816406-1.601563 10.605469-4.390625 2.789062-2.796875 4.390625-6.660156 4.390625-10.609375zm0 0" fill="#8db9c4"/><path d="m256 433.800781v30c3.949219-.003906 7.808594-1.601562 10.605469-4.390625 2.789062-2.789062 4.390625-6.660156 4.390625-10.609375s-1.601563-7.820312-4.390625-10.609375c-2.796875-2.792968-6.65625-4.390625-10.605469-4.390625zm0 0" fill="#8db9c4"/><path d="m256.011719 241v30c3.945312-.003906 7.804687-1.601562 10.601562-4.390625 2.792969-2.789063 4.394531-6.660156 4.394531-10.609375s-1.601562-7.820312-4.394531-10.609375c-2.796875-2.789063-6.65625-4.386719-10.601562-4.390625zm0 0" fill="#8db9c4"/></svg>