<?xml version="1.0" encoding="iso-8859-1"?>
<!-- Generator: Adobe Illustrator 19.0.0, SVG Export Plug-In . SVG Version: 6.00 Build 0)  -->
<svg version="1.1" id="Layer_1" xmlns="http://www.w3.org/2000/svg" xmlns:xlink="http://www.w3.org/1999/xlink" x="0px" y="0px"
	 viewBox="0 0 512 512" style="enable-background:new 0 0 512 512;" xml:space="preserve">
<path style="fill:#E8EDEE;" d="M481.103,401.655H30.897C14.124,401.655,0,387.531,0,370.759V44.138
	c0-16.772,14.124-30.897,30.897-30.897h450.207c16.772,0,30.897,14.124,30.897,30.897v326.621
	C512,387.531,497.876,401.655,481.103,401.655"/>
<path style="fill:#38454F;" d="M512,322.207H0V44.138c0-16.772,14.124-30.897,30.897-30.897h450.207
	c16.772,0,30.897,14.124,30.897,30.897V322.207z"/>
<g>
	<path style="fill:#A2C9EC;" d="M220.69,260.414H79.448l-35.31,26.483V128H220.69V260.414z"/>
	<path style="fill:#A2C9EC;" d="M291.31,189.793h141.241l35.31,26.483V57.379H291.31V189.793z"/>
</g>
<path style="fill:#B0B6BB;" d="M351.338,472.276H160.662c-1.766,0-2.648-2.648-0.883-3.531l15.89-11.476
	c16.772-12.359,25.6-34.428,20.303-55.614h120.055l0,0c-5.297,21.186,3.531,43.255,20.303,55.614l15.89,11.476
	C353.986,469.628,353.103,472.276,351.338,472.276"/>
<path style="fill:#E8EDEE;" d="M357.517,498.759H154.483c-7.062,0-13.241-6.179-13.241-13.241s6.179-13.241,13.241-13.241h203.034
	c7.062,0,13.241,6.179,13.241,13.241S364.579,498.759,357.517,498.759"/>
<path style="fill:#ECBA16;" d="M79.448,83.862h-35.31c-5.297,0-8.828-3.531-8.828-8.828c0-5.297,3.531-8.828,8.828-8.828h35.31
	c5.297,0,8.828,3.531,8.828,8.828C88.276,80.331,84.745,83.862,79.448,83.862"/>
<path style="fill:#42B05C;" d="M203.034,83.862h-35.31c-5.297,0-8.828-3.531-8.828-8.828c0-5.297,3.531-8.828,8.828-8.828h35.31
	c5.297,0,8.828,3.531,8.828,8.828C211.862,80.331,208.331,83.862,203.034,83.862"/>
<path style="fill:#DD342E;" d="M132.414,83.862h-17.655c-5.297,0-8.828-3.531-8.828-8.828c0-5.297,3.531-8.828,8.828-8.828h17.655
	c5.297,0,8.828,3.531,8.828,8.828C141.241,80.331,137.71,83.862,132.414,83.862"/>
<path style="fill:#ECBA16;" d="M344.276,278.069h-35.31c-5.297,0-8.828-3.531-8.828-8.828c0-5.297,3.531-8.828,8.828-8.828h35.31
	c5.297,0,8.828,3.531,8.828,8.828C353.103,274.538,349.572,278.069,344.276,278.069"/>
<path style="fill:#42B05C;" d="M467.862,278.069h-35.31c-5.297,0-8.828-3.531-8.828-8.828c0-5.297,3.531-8.828,8.828-8.828h35.31
	c5.297,0,8.828,3.531,8.828,8.828C476.69,274.538,473.159,278.069,467.862,278.069"/>
<path style="fill:#DD342E;" d="M397.241,278.069h-17.655c-5.297,0-8.828-3.531-8.828-8.828c0-5.297,3.531-8.828,8.828-8.828h17.655
	c5.297,0,8.828,3.531,8.828,8.828C406.069,274.538,402.538,278.069,397.241,278.069"/>
<g>
	<path style="fill:#FFFFFF;" d="M423.724,110.345h-44.138c-5.297,0-8.828-3.531-8.828-8.828s3.531-8.828,8.828-8.828h44.138
		c5.297,0,8.828,3.531,8.828,8.828S429.021,110.345,423.724,110.345"/>
	<path style="fill:#FFFFFF;" d="M344.276,110.345h-8.828c-5.297,0-8.828-3.531-8.828-8.828s3.531-8.828,8.828-8.828h8.828
		c5.297,0,8.828,3.531,8.828,8.828S349.572,110.345,344.276,110.345"/>
	<path style="fill:#FFFFFF;" d="M370.759,154.483h-35.31c-5.297,0-8.828-3.531-8.828-8.828s3.531-8.828,8.828-8.828h35.31
		c5.297,0,8.828,3.531,8.828,8.828S376.055,154.483,370.759,154.483"/>
	<path style="fill:#FFFFFF;" d="M423.724,154.483h-17.655c-5.297,0-8.828-3.531-8.828-8.828s3.531-8.828,8.828-8.828h17.655
		c5.297,0,8.828,3.531,8.828,8.828S429.021,154.483,423.724,154.483"/>
	<path style="fill:#FFFFFF;" d="M176.552,180.966h-44.138c-5.297,0-8.828-3.531-8.828-8.828s3.531-8.828,8.828-8.828h44.138
		c5.297,0,8.828,3.531,8.828,8.828S181.848,180.966,176.552,180.966"/>
	<path style="fill:#FFFFFF;" d="M97.103,180.966h-8.828c-5.297,0-8.828-3.531-8.828-8.828s3.531-8.828,8.828-8.828h8.828
		c5.297,0,8.828,3.531,8.828,8.828S102.4,180.966,97.103,180.966"/>
	<path style="fill:#FFFFFF;" d="M123.586,225.103h-35.31c-5.297,0-8.828-3.531-8.828-8.828s3.531-8.828,8.828-8.828h35.31
		c5.297,0,8.828,3.531,8.828,8.828S128.883,225.103,123.586,225.103"/>
	<path style="fill:#FFFFFF;" d="M176.552,225.103h-17.655c-5.297,0-8.828-3.531-8.828-8.828s3.531-8.828,8.828-8.828h17.655
		c5.297,0,8.828,3.531,8.828,8.828S181.848,225.103,176.552,225.103"/>
</g>
<g>
</g>
<g>
</g>
<g>
</g>
<g>
</g>
<g>
</g>
<g>
</g>
<g>
</g>
<g>
</g>
<g>
</g>
<g>
</g>
<g>
</g>
<g>
</g>
<g>
</g>
<g>
</g>
<g>
</g>
</svg>
