<?xml version="1.0" encoding="utf-8"?>
<!-- Generator: Adobe Illustrator 15.0.0, SVG Export Plug-In  -->
<!DOCTYPE svg PUBLIC "-//W3C//DTD SVG 1.1//EN" "http://www.w3.org/Graphics/SVG/1.1/DTD/svg11.dtd" [
	<!ENTITY ns_flows "http://ns.adobe.com/Flows/1.0/">
]>
<svg version="1.1"
	 xmlns="http://www.w3.org/2000/svg" xmlns:xlink="http://www.w3.org/1999/xlink" xmlns:a="http://ns.adobe.com/AdobeSVGViewerExtensions/3.0/"
	 x="0px" y="0px" width="41px" height="97px" viewBox="-0.167 0 41 97" enable-background="new -0.167 0 41 97"
	 xml:space="preserve">
<defs>
</defs>
<path fill="#E30613" d="M39.452,7.971c0,0-4.41-5.116-13.689,0c-9.701,5.61-9.547,11.701-10.583,18.063
	c-0.394,12.591,3.026,24.261,4.08,29.165c2.651,10.301,3.116,35.751-4.086,40.972c0,0-1.477-10.634-2.888-12.046
	c0,0-7.02,11.764-11.501,11.764c0,0,6.167-18.876,6.167-28.001c0-8.568-5.333-23.388-4-43.888c0.9-13.846,8.276-19.557,21.4-20.122
	C37.724,3.303,39.452,7.971,39.452,7.971z"/>
<path fill="#54110D" d="M39.452,7.971H25.763c0,0,3.356-2.269,7.938-2.269C37.535,5.702,39.452,7.971,39.452,7.971z"/>
<path fill="#FFFFFF" d="M10.677,66.882c-0.155-0.383-0.312-1.01-0.401-1.636c-0.13-0.908-0.051-1.517,0.259-1.997
	c0.23-0.405,0.634-0.697,1.211-0.78c0.72-0.103,1.406,0.268,1.783,0.96l0.032-0.005c0.068-0.691,0.533-1.557,1.623-1.712
	c0.632-0.091,1.156,0.079,1.558,0.395c0.537,0.413,0.868,1.176,1.033,2.323c0.09,0.627,0.115,1.113,0.114,1.422L10.677,66.882z
	 M13.554,65.544l-0.118-0.824c-0.137-0.95-0.751-1.438-1.459-1.336c-0.85,0.121-1.11,0.787-0.979,1.705
	c0.06,0.418,0.127,0.653,0.181,0.795L13.554,65.544z M17.062,65.043c0.006-0.192-0.02-0.444-0.065-0.768
	c-0.135-0.939-0.618-1.755-1.686-1.603c-0.992,0.142-1.299,1.027-1.156,2.019l0.107,0.752L17.062,65.043z"/>
<path fill="#FFFFFF" d="M14.548,60.107c1.285-0.242,1.683-1.113,1.523-2.038c-0.112-0.654-0.301-1.039-0.51-1.346l0.653-0.283
	c0.207,0.296,0.488,0.825,0.625,1.625c0.267,1.549-0.647,2.657-2.229,2.93c-1.582,0.271-2.971-0.41-3.223-1.875
	c-0.283-1.652,1.139-2.335,2.103-2.501c0.195-0.033,0.338-0.047,0.449-0.045L14.548,60.107z M13.404,57.543
	c-0.598,0.093-1.497,0.504-1.32,1.532c0.16,0.936,1.106,1.18,1.779,1.139L13.404,57.543z"/>
<path fill="#FFFFFF" d="M15.191,55.164c0.113-0.315,0.208-0.831,0.112-1.286c-0.136-0.65-0.535-0.891-0.977-0.798
	c-0.453,0.095-0.636,0.402-0.756,1.118C13.418,55.18,13,55.709,12.375,55.84c-0.84,0.177-1.668-0.34-1.892-1.404
	c-0.105-0.506-0.059-0.979,0.068-1.286l0.734,0.072c-0.088,0.223-0.195,0.623-0.098,1.088c0.112,0.537,0.496,0.759,0.884,0.678
	c0.432-0.091,0.564-0.421,0.697-1.128c0.154-0.928,0.512-1.477,1.287-1.64c0.927-0.194,1.718,0.362,1.963,1.53
	c0.114,0.547,0.07,1.085-0.071,1.481L15.191,55.164z"/>
<path fill="#FFFFFF" d="M8.52,51.127l1.235-0.317l-0.33-1.286l0.713-0.183l0.331,1.286l2.78-0.713
	c0.639-0.164,0.956-0.43,0.827-0.93c-0.063-0.245-0.121-0.382-0.197-0.504l0.703-0.224c0.108,0.157,0.243,0.416,0.332,0.763
	c0.108,0.418,0.046,0.794-0.145,1.071c-0.225,0.319-0.656,0.539-1.264,0.694l-2.812,0.721l0.197,0.766l-0.714,0.184L9.98,51.688
	l-0.958,0.245L8.52,51.127z"/>
<path fill="#FFFFFF" d="M6.271,46.672c-0.205-0.426-0.444-1.061-0.605-1.663c-0.254-0.948-0.229-1.621,0.052-2.145
	c0.229-0.422,0.662-0.757,1.226-0.908c0.935-0.251,1.714,0.151,2.16,0.796l0.031-0.009c0.052-0.571,0.478-1.024,1.177-1.387
	c0.938-0.493,1.585-0.841,1.823-1.058l0.245,0.917c-0.182,0.169-0.746,0.485-1.589,0.908c-0.934,0.469-1.204,0.946-1.021,1.76
	l0.225,0.836l3.101-0.833l0.237,0.887L6.271,46.672z M9.293,44.909L9.05,44.002c-0.254-0.948-0.957-1.404-1.774-1.184
	c-0.924,0.248-1.155,0.999-0.904,1.937c0.114,0.428,0.226,0.715,0.31,0.856L9.293,44.909z"/>
<path fill="#FFFFFF" d="M10.598,35.995c0.46-0.033,0.909-0.087,1.267-0.166l0.06,0.831l-0.664,0.122l0.002,0.031
	c0.438,0.254,0.85,0.773,0.9,1.499c0.073,1.03-0.646,1.611-1.414,1.666c-1.283,0.093-2.063-0.95-2.192-2.917L8.446,37.07
	c-0.428,0.031-1.221,0.204-1.136,1.244c0.034,0.484,0.212,0.968,0.49,1.307l-0.633,0.257c-0.304-0.401-0.534-1.007-0.58-1.649
	c-0.11-1.556,0.971-2.015,2.023-2.091L10.598,35.995z M9.224,36.993c0.05,1.011,0.317,2.144,1.349,2.069
	c0.637-0.046,0.894-0.466,0.86-0.929c-0.048-0.673-0.517-1.072-0.978-1.187c-0.111-0.023-0.222-0.026-0.31-0.02L9.224,36.993z"/>
<path fill="#FFFFFF" d="M5.31,33.386l1.275,0.027l0.029-1.329L7.352,32.1l-0.029,1.329l2.872,0.06
	c0.659,0.014,1.037-0.158,1.049-0.675c0.006-0.253-0.014-0.401-0.055-0.539l0.738-0.027c0.063,0.181,0.122,0.467,0.114,0.825
	c-0.01,0.433-0.171,0.777-0.429,0.993c-0.303,0.247-0.778,0.343-1.405,0.33l-2.904-0.061l-0.018,0.791L6.549,35.11l0.017-0.791
	l-0.99-0.021L5.31,33.386z"/>
<path fill="#FFFFFF" d="M9.55,30.579c1.306,0.104,1.919-0.632,2.008-1.566c0.063-0.662-0.018-1.083-0.139-1.433l0.706-0.102
	c0.122,0.34,0.254,0.925,0.177,1.733c-0.15,1.564-1.324,2.394-2.924,2.24c-1.6-0.153-2.762-1.176-2.62-2.657
	c0.16-1.669,1.714-1.954,2.688-1.86c0.197,0.019,0.339,0.043,0.446,0.075L9.55,30.579z M9.12,27.804
	c-0.602-0.068-1.579,0.092-1.679,1.131c-0.091,0.945,0.759,1.429,1.42,1.566L9.12,27.804z"/>
<path fill="#FFFFFF" d="M5.636,20.476l6.329,1.169c0.465,0.086,0.999,0.163,1.36,0.208l-0.15,0.809l-0.916-0.126l-0.006,0.031
	c0.534,0.377,0.866,1.062,0.714,1.881c-0.225,1.214-1.471,1.96-3.062,1.666c-1.743-0.311-2.609-1.555-2.385-2.769
	c0.145-0.778,0.617-1.217,1.071-1.369l0.004-0.021l-3.127-0.578L5.636,20.476z M10.045,22.224c-0.119-0.022-0.283-0.042-0.408-0.032
	c-0.62,0.025-1.21,0.431-1.337,1.116c-0.175,0.944,0.587,1.665,1.733,1.876c1.061,0.196,2.031-0.151,2.212-1.126
	c0.113-0.612-0.216-1.252-0.888-1.548c-0.124-0.055-0.252-0.089-0.403-0.118L10.045,22.224z"/>
<rect id="_x3C_Slice_x3E__5_" fill="none" width="40.833" height="97"/>
</svg>
