<?xml version="1.0" encoding="utf-8"?>
<!-- Generator: Adobe Illustrator 15.0.0, SVG Export Plug-In  -->
<!DOCTYPE svg PUBLIC "-//W3C//DTD SVG 1.1//EN" "http://www.w3.org/Graphics/SVG/1.1/DTD/svg11.dtd" [
	<!ENTITY ns_flows "http://ns.adobe.com/Flows/1.0/">
]>
<svg version="1.1"
	 xmlns="http://www.w3.org/2000/svg" xmlns:xlink="http://www.w3.org/1999/xlink" xmlns:a="http://ns.adobe.com/AdobeSVGViewerExtensions/3.0/"
	 x="0px" y="0px" width="41px" height="95px" viewBox="-0.501 -0.75 41 95" enable-background="new -0.501 -0.75 41 95"
	 xml:space="preserve">
<defs>
</defs>
<path fill="#E30613" d="M0.95,5.221c0,0,4.41-5.116,13.689,0c9.701,5.61,9.547,11.701,10.583,18.063
	c0.394,12.591-3.026,24.261-4.08,29.165C18.491,62.75,18.026,88.2,25.229,93.421c0,0,1.477-10.634,2.888-12.046
	c0,0,7.02,11.764,11.501,11.764c0,0-6.167-18.876-6.167-28.001c0-8.568,5.333-23.388,4-43.888c-0.9-13.846-8.276-19.557-21.4-20.122
	C2.679,0.553,0.95,5.221,0.95,5.221z"/>
<path fill="#54110D" d="M0.95,5.221H14.64c0,0-3.356-2.269-7.938-2.269C2.867,2.952,0.95,5.221,0.95,5.221z"/>
<rect x="16.623" y="6.075" transform="matrix(0.9999 -0.0157 0.0157 0.9999 -0.0933 0.2911)" fill="none" width="3.662" height="0"/>
<path fill="#FFFFFF" d="M34.894,19.206c0.146,0.387,0.289,1.018,0.365,1.647c0.11,0.912,0.018,1.519-0.302,1.993
	c-0.24,0.401-0.649,0.684-1.229,0.754c-0.721,0.086-1.399-0.3-1.761-1.001l-0.033,0.004c-0.083,0.69-0.567,1.546-1.659,1.678
	c-0.634,0.076-1.154-0.106-1.549-0.431c-0.528-0.426-0.843-1.196-0.981-2.349c-0.076-0.629-0.091-1.116-0.084-1.426L34.894,19.206z
	 M28.471,20.902c-0.01,0.193,0.009,0.445,0.049,0.771c0.113,0.943,0.579,1.77,1.65,1.642c0.994-0.12,1.32-0.999,1.199-1.995
	l-0.091-0.755L28.471,20.902z M31.988,20.48l0.101,0.828c0.115,0.954,0.719,1.456,1.429,1.37c0.853-0.102,1.127-0.763,1.016-1.685
	c-0.051-0.419-0.112-0.657-0.163-0.799L31.988,20.48z"/>
<path fill="#FFFFFF" d="M30.764,26.061c-1.31,0.03-1.843,0.826-1.836,1.766c0.005,0.665,0.129,1.076,0.285,1.413l-0.691,0.174
	c-0.157-0.327-0.348-0.896-0.354-1.708c-0.012-1.573,1.07-2.521,2.677-2.532s2.867,0.888,2.878,2.377
	c0.012,1.679-1.503,2.123-2.482,2.129c-0.198,0.001-0.341-0.008-0.451-0.029L30.764,26.061z M31.476,28.78
	c0.605,0.006,1.561-0.253,1.554-1.299c-0.007-0.95-0.901-1.345-1.573-1.415L31.476,28.78z"/>
<path fill="#FFFFFF" d="M29.109,30.568c-0.219,0.253-0.491,0.701-0.565,1.16c-0.105,0.656,0.181,1.023,0.626,1.096
	c0.456,0.073,0.737-0.148,1.105-0.773c0.495-0.861,1.075-1.206,1.705-1.104c0.848,0.137,1.436,0.917,1.263,1.99
	c-0.083,0.511-0.296,0.936-0.524,1.177l-0.66-0.332c0.162-0.177,0.406-0.512,0.481-0.98c0.087-0.542-0.191-0.887-0.583-0.95
	c-0.435-0.07-0.677,0.19-1.055,0.803c-0.476,0.811-1.006,1.195-1.788,1.069c-0.935-0.151-1.474-0.955-1.284-2.132
	c0.089-0.552,0.323-1.039,0.598-1.358L29.109,30.568z"/>
<path fill="#FFFFFF" d="M33.68,36.958l-1.254-0.239l-0.248,1.307l-0.724-0.138l0.248-1.307l-2.819-0.538
	c-0.648-0.124-1.049-0.017-1.146,0.491c-0.047,0.249-0.053,0.398-0.035,0.542L26.97,36.98c-0.031-0.188-0.043-0.481,0.024-0.834
	c0.08-0.425,0.297-0.739,0.587-0.91c0.339-0.193,0.823-0.208,1.438-0.091l2.853,0.543l0.147-0.778l0.724,0.138l-0.147,0.778
	l0.972,0.186L33.68,36.958z"/>
<path fill="#FFFFFF" d="M27.505,40.35c-0.341,0.359-0.647,0.907-0.754,1.531c-0.159,0.926,0.258,1.555,0.995,1.682
	c0.673,0.115,1.139-0.19,1.67-1.074c0.631-1.07,1.381-1.67,2.401-1.495c1.139,0.196,1.83,1.246,1.596,2.609
	c-0.121,0.708-0.386,1.208-0.622,1.479l-0.728-0.382c0.179-0.194,0.465-0.627,0.574-1.262c0.164-0.958-0.37-1.424-0.869-1.51
	c-0.684-0.117-1.093,0.251-1.649,1.152c-0.682,1.104-1.38,1.595-2.454,1.411c-1.128-0.194-1.979-1.154-1.695-2.809
	c0.115-0.676,0.459-1.378,0.784-1.708L27.505,40.35z"/>
<path fill="#FFFFFF" d="M27.847,46.442c-1.301-0.146-1.937,0.57-2.056,1.502c-0.085,0.66-0.017,1.083,0.093,1.438l-0.709,0.079
	c-0.111-0.345-0.224-0.934-0.12-1.74c0.199-1.56,1.399-2.352,2.992-2.147c1.593,0.205,2.721,1.265,2.532,2.742
	c-0.214,1.664-1.774,1.899-2.745,1.774c-0.197-0.025-0.337-0.054-0.443-0.089L27.847,46.442z M28.188,49.231
	c0.599,0.087,1.58-0.042,1.713-1.078c0.121-0.942-0.712-1.454-1.367-1.612L28.188,49.231z"/>
<path fill="#FFFFFF" d="M32.522,51.961l-0.135,0.92l-7.725-1.127l0.135-0.92L32.522,51.961z"/>
<path fill="#FFFFFF" d="M32.1,54.635l-0.166,0.914l-7.682-1.397l0.167-0.914L32.1,54.635z"/>
<path fill="#FFFFFF" d="M26.295,56.646c-1.287-0.238-1.973,0.431-2.159,1.352c-0.132,0.651-0.095,1.079-0.01,1.44l-0.714,0.028
	c-0.086-0.352-0.156-0.947,0.005-1.744c0.312-1.541,1.565-2.246,3.141-1.928c1.574,0.319,2.625,1.457,2.33,2.916
	c-0.332,1.646-1.907,1.769-2.867,1.574c-0.194-0.04-0.332-0.078-0.436-0.121L26.295,56.646z M26.436,59.452
	c0.592,0.131,1.58,0.072,1.787-0.952c0.188-0.931-0.606-1.501-1.25-1.706L26.436,59.452z"/>
<path fill="#FFFFFF" d="M26.519,61.597c0.619,0.101,1.153,0.177,1.647,0.226l-0.131,0.802l-1.05-0.128l-0.005,0.031
	c0.669,0.345,1.023,0.979,0.923,1.595c-0.015,0.094-0.038,0.165-0.063,0.246l-0.901-0.146c0.037-0.09,0.052-0.185,0.072-0.31
	c0.105-0.646-0.32-1.186-1.017-1.428c-0.127-0.042-0.288-0.079-0.44-0.104l-2.803-0.457l0.148-0.917L26.519,61.597z"/>
<rect id="_x3C_Slice_x3E__5_" fill="none" width="40.499" height="94.25"/>
</svg>
