<?xml version="1.0" encoding="utf-8"?>
<!-- Generator: Adobe Illustrator 15.0.0, SVG Export Plug-In  -->
<!DOCTYPE svg PUBLIC "-//W3C//DTD SVG 1.1//EN" "http://www.w3.org/Graphics/SVG/1.1/DTD/svg11.dtd" [
	<!ENTITY ns_flows "http://ns.adobe.com/Flows/1.0/">
]>
<svg version="1.1"
	 xmlns="http://www.w3.org/2000/svg" xmlns:xlink="http://www.w3.org/1999/xlink" xmlns:a="http://ns.adobe.com/AdobeSVGViewerExtensions/3.0/"
	 x="0px" y="0px" width="41px" height="95px" viewBox="0 0 41 95" enable-background="new 0 0 41 95" xml:space="preserve">
<defs>
</defs>
<path fill="#E30613" d="M1.334,5.971c0,0,4.41-5.116,13.689,0c9.701,5.61,9.547,11.701,10.583,18.063
	C26,36.625,22.58,48.295,21.526,53.199C18.875,63.5,18.41,88.95,25.612,94.171c0,0,1.477-10.634,2.888-12.046
	c0,0,7.02,11.764,11.501,11.764c0,0-6.167-18.876-6.167-28.001c0-8.568,5.333-23.388,4-43.888c-0.9-13.846-8.276-19.557-21.4-20.122
	C3.063,1.303,1.334,5.971,1.334,5.971z"/>
<path fill="#54110D" d="M1.334,5.971h13.689c0,0-3.356-2.269-7.938-2.269C3.251,3.702,1.334,5.971,1.334,5.971z"/>
<path fill="#FFFFFF" d="M35.011,17.223c0.149,0.36,0.306,0.953,0.402,1.544c0.139,0.858,0.079,1.435-0.192,1.895
	c-0.2,0.386-0.561,0.667-1.084,0.751c-0.651,0.105-1.286-0.238-1.645-0.889l-0.029,0.004c-0.046,0.656-0.451,1.48-1.438,1.64
	c-0.574,0.093-1.056-0.063-1.427-0.357c-0.499-0.385-0.817-1.103-0.993-2.188c-0.095-0.592-0.129-1.052-0.136-1.345L35.011,17.223z
	 M29.241,19.035c-0.002,0.182,0.026,0.421,0.076,0.727c0.144,0.888,0.602,1.654,1.57,1.498c0.899-0.145,1.158-0.987,1.007-1.924
	l-0.114-0.71L29.241,19.035z M32.423,18.521l0.126,0.779c0.144,0.898,0.715,1.353,1.356,1.25c0.771-0.125,0.994-0.758,0.854-1.626
	c-0.063-0.394-0.131-0.616-0.183-0.75L32.423,18.521z"/>
<path fill="#FFFFFF" d="M32.222,26.915l0.052-2.61l-2.435-0.049l-0.058,2.921l-0.731-0.015l0.076-3.801l6.752,0.136l-0.073,3.65
	l-0.731-0.015l0.056-2.771l-2.134-0.043l-0.053,2.611L32.222,26.915z"/>
<path fill="#FFFFFF" d="M29.974,28.164c-0.294,0.358-0.547,0.893-0.616,1.488c-0.103,0.883,0.305,1.454,0.98,1.532
	c0.616,0.072,1.026-0.243,1.469-1.107c0.525-1.046,1.181-1.654,2.114-1.545c1.044,0.121,1.72,1.074,1.569,2.375
	c-0.079,0.675-0.297,1.163-0.5,1.432l-0.678-0.32c0.153-0.194,0.395-0.619,0.466-1.224c0.104-0.914-0.401-1.325-0.858-1.377
	c-0.627-0.073-0.981,0.299-1.447,1.18c-0.57,1.082-1.182,1.584-2.167,1.47c-1.033-0.12-1.851-0.979-1.667-2.557
	c0.074-0.646,0.355-1.328,0.636-1.657L29.974,28.164z"/>
<path fill="#FFFFFF" d="M34.074,35.113l0.299-2.029l0.732,0.108l-0.729,4.939l-0.732-0.108l0.301-2.039l-5.948-0.875l0.129-0.871
	L34.074,35.113z"/>
<path fill="#FFFFFF" d="M28.645,37.89c-0.31,0.345-0.587,0.868-0.683,1.46c-0.143,0.878,0.24,1.467,0.912,1.576
	c0.613,0.1,1.036-0.197,1.519-1.041c0.57-1.022,1.253-1.601,2.183-1.451c1.037,0.167,1.67,1.151,1.461,2.445
	c-0.109,0.671-0.348,1.149-0.563,1.408l-0.663-0.35c0.163-0.187,0.421-0.601,0.52-1.203c0.146-0.908-0.342-1.342-0.796-1.415
	c-0.623-0.101-0.995,0.254-1.5,1.115c-0.617,1.055-1.252,1.531-2.23,1.372c-1.029-0.166-1.808-1.062-1.553-2.632
	c0.104-0.642,0.414-1.311,0.71-1.628L28.645,37.89z"/>
<path fill="#FFFFFF" d="M29.346,46.617l0.427-2.574l-2.4-0.399l-0.476,2.878l-0.721-0.12l0.618-3.747l6.657,1.108l-0.595,3.599
	l-0.721-0.12l0.45-2.731l-2.103-0.351l-0.426,2.573L29.346,46.617z"/>
<path fill="#FFFFFF" d="M32.654,48.584l-0.141,0.869l-5.944-0.96l-0.459,2.843l-0.722-0.116l0.6-3.713L32.654,48.584z"/>
<path fill="#FFFFFF" d="M31.93,53.096l-0.126,0.872l-5.956-0.859l-0.412,2.851l-0.724-0.104l0.537-3.721L31.93,53.096z"/>
<path fill="#FFFFFF" d="M27.463,60.819l0.177-2.604l-2.428-0.164l-0.199,2.914l-0.729-0.051l0.257-3.791l6.736,0.455l-0.247,3.644
	l-0.729-0.05l0.188-2.766l-2.13-0.143l-0.176,2.604L27.463,60.819z"/>
<path fill="#FFFFFF" d="M31.105,62.488c0.069,0.44,0.112,1.082,0.097,1.672c-0.024,0.93-0.22,1.533-0.603,1.933
	c-0.309,0.323-0.775,0.511-1.307,0.496c-0.881-0.022-1.457-0.598-1.68-1.304h-0.03c-0.194,0.504-0.683,0.802-1.388,0.943
	c-0.949,0.195-1.604,0.338-1.868,0.471l0.023-0.899c0.203-0.104,0.778-0.239,1.625-0.397c0.938-0.175,1.298-0.535,1.349-1.324
	l0.021-0.819l-2.926-0.077l0.023-0.868L31.105,62.488z M28.007,63.276l-0.023,0.89c-0.025,0.93,0.472,1.531,1.243,1.552
	c0.872,0.022,1.269-0.597,1.293-1.516c0.011-0.421-0.012-0.71-0.048-0.861L28.007,63.276z"/>
<rect id="_x3C_Slice_x3E__5_" fill="none" width="41" height="95"/>
</svg>
