<?xml version="1.0" encoding="utf-8"?>
<!-- Generator: Adobe Illustrator 15.0.0, SVG Export Plug-In  -->
<!DOCTYPE svg PUBLIC "-//W3C//DTD SVG 1.1//EN" "http://www.w3.org/Graphics/SVG/1.1/DTD/svg11.dtd" [
	<!ENTITY ns_flows "http://ns.adobe.com/Flows/1.0/">
]>
<svg version="1.1"
	 xmlns="http://www.w3.org/2000/svg" xmlns:xlink="http://www.w3.org/1999/xlink" xmlns:a="http://ns.adobe.com/AdobeSVGViewerExtensions/3.0/"
	 x="0px" y="0px" width="285px" height="32px" viewBox="100 0 285 32" enable-background="new 100 0 285 32" xml:space="preserve">
<defs>
</defs>
<g>
	<path fill="#1282C3" d="M572.103,72.784c-23.361,2.256-24.239-15.963-47.709-15.963c-23.471,0-23.471,16-46.941,16
		c-23.472,0-23.472-16-46.943-16c-23.473,0-23.473,16-46.945,16c-23.472,0-23.472-16-46.942-16c-23.473,0-23.473,16-46.945,16
		c-23.472,0-23.472-16-46.943-16s-23.471,16-46.943,16c-23.473,0-23.473-16-46.945-16c-23.472,0-23.472,16-46.944,16
		c-23.475,0-23.475-16-46.951-16c-23.475,0-24.35,18.213-47.717,15.963C4.983,72.567,16,62.561,16,60.301c0-2.262-16-2.262-16-4.524
		c0-2.261,16-2.261,16-4.521c0-2.262-16-2.262-16-4.523c0-2.263,16-2.263,16-4.526c0-2.263-16-2.263-16-4.525s16-2.263,16-4.525
		S0,30.892,0,28.629c0-2.263,16-2.263,16-4.525c0-2.265-16-2.265-16-4.529c0-2.266,16-2.266,16-4.532S4.976,2.765,7.231,2.547
		C30.593,0.292,31.47,18.51,54.94,18.51c23.471,0,23.471-16,46.941-16c23.472,0,23.472,16,46.944,16s23.472-16,46.944-16
		c23.472,0,23.472,16,46.943,16c23.472,0,23.472-16,46.945-16c23.471,0,23.471,16,46.942,16s23.472-16,46.943-16
		c23.473,0,23.473,16,46.945,16c23.472,0,23.472-16,46.944-16c23.475,0,23.475,16,46.95,16s24.35-18.213,47.717-15.963
		c2.25,0.217-8.767,10.224-8.767,12.483c0,2.262,16,2.262,16,4.524c0,2.261-16,2.261-16,4.521c0,2.262,16,2.262,16,4.524
		c0,2.263-16,2.263-16,4.526s16,2.263,16,4.525s-16,2.263-16,4.526c0,2.262,16,2.262,16,4.524s-16,2.263-16,4.525
		c0,2.265,16,2.265,16,4.529c0,2.267-16.274,3.719-15.874,5.949C564.609,68.09,574.358,72.566,572.103,72.784z"/>
</g>
<rect id="_x3C_Slice_x3E__1_" x="100" fill="none" width="285" height="32"/>
</svg>
