<?xml version="1.0" encoding="iso-8859-1"?>
<!-- Generator: Adobe Illustrator 19.0.0, SVG Export Plug-In . SVG Version: 6.00 Build 0)  -->
<svg version="1.1" id="Layer_1" xmlns="http://www.w3.org/2000/svg" xmlns:xlink="http://www.w3.org/1999/xlink" x="0px" y="0px"
	 viewBox="0 0 512 512" style="enable-background:new 0 0 512 512;" xml:space="preserve">
<path style="fill:#CD2A00;" d="M37.461,484.886h442.774l31.602-240.652c1.221-9.783-4.472-19.114-13.73-22.502
	c-51.49-18.846-78.401-96.412-61.266-176.581c0.83-3.877,1.782-7.838,2.832-11.771c1.695-6.355,0.34-13.137-3.666-18.353
	c-4.006-5.216-10.21-8.273-16.788-8.273h-54.208c-11.691,0-21.168,9.478-21.168,21.168c0,48.436-39.407,87.843-87.843,87.843
	c-48.438,0-87.843-39.407-87.843-87.843c0-11.691-9.478-21.168-21.168-21.168H92.779c-6.578,0-12.781,3.058-16.788,8.274
	c-4.006,5.216-5.361,12-3.664,18.354c1.05,3.934,2.001,7.892,2.828,11.761c17.138,80.175-9.773,157.741-61.261,176.588
	c-9.454,3.46-15.164,13.099-13.654,23.054L37.461,484.886z"/>
<g>
	<path style="fill:#AA2300;" d="M472.035,462.909H40.221c-11.691,0-21.168,9.478-21.168,21.168c0,11.691,9.478,21.168,21.168,21.168
		h431.814c11.691,0,21.168-9.478,21.168-21.168C493.204,472.387,483.726,462.909,472.035,462.909z"/>
	<path style="fill:#AA2300;" d="M480.233,484.886l31.602-240.652c1.221-9.783-4.472-19.114-13.73-22.502
		c-51.49-18.846-78.401-96.412-61.266-176.581c0.83-3.877,1.782-7.838,2.832-11.771c1.695-6.355,0.34-13.137-3.666-18.353
		c-4.006-5.216-10.21-8.273-16.788-8.273h-54.208c-11.691,0-21.168,9.478-21.168,21.168c0,48.436-39.407,87.843-87.843,87.843
		c-0.696,0-1.383-0.037-2.076-0.052v369.174h226.311V484.886z"/>
</g>
<g>
	<path style="fill:#891C00;" d="M472.035,462.909H253.923v42.337h218.111c11.691,0,21.168-9.478,21.168-21.168
		C493.202,472.387,483.726,462.909,472.035,462.909z"/>
	<circle style="fill:#891C00;" cx="256.123" cy="290.854" r="119.743"/>
</g>
<g>
	<path style="fill:#FFFFFF;" d="M185.94,313.042v-36.812c0-22.033,13.457-30.213,30.873-30.213c17.417,0,31.006,8.179,31.006,30.213
		v36.812c0,22.034-13.59,30.214-31.006,30.214C199.398,343.257,185.94,335.076,185.94,313.042z M230.667,276.231
		c0-10.423-5.278-15.172-13.854-15.172c-8.707,0-13.721,4.75-13.721,15.172v36.812c0,10.423,5.014,15.172,13.721,15.172
		c8.576,0,13.854-4.75,13.854-15.172L230.667,276.231L230.667,276.231z"/>
	<path style="fill:#FFFFFF;" d="M259.953,313.042v-36.812c0-22.033,13.457-30.213,30.875-30.213s31.006,8.179,31.006,30.213v36.812
		c0,22.034-13.589,30.214-31.006,30.214S259.953,335.076,259.953,313.042z M304.682,276.231c0-10.423-5.277-15.172-13.853-15.172
		c-8.709,0-13.721,4.75-13.721,15.172v36.812c0,10.423,5.014,15.172,13.721,15.172c8.577,0,13.853-4.75,13.853-15.172V276.231z"/>
</g>
<g>
</g>
<g>
</g>
<g>
</g>
<g>
</g>
<g>
</g>
<g>
</g>
<g>
</g>
<g>
</g>
<g>
</g>
<g>
</g>
<g>
</g>
<g>
</g>
<g>
</g>
<g>
</g>
<g>
</g>
</svg>
