<?xml version='1.0' encoding='iso-8859-1'?>
<!DOCTYPE svg PUBLIC '-//W3C//DTD SVG 1.1//EN' 'http://www.w3.org/Graphics/SVG/1.1/DTD/svg11.dtd'>
<svg version="1.1" xmlns="http://www.w3.org/2000/svg" viewBox="0 0 235.81 235.81" xmlns:xlink="http://www.w3.org/1999/xlink" enable-background="new 0 0 235.81 235.81">
  <path d="m222.268,146.997l-22.264-22.263c-1.406-1.407-3.313-2.197-5.303-2.197h-21.094v-15.437l26.396-26.39c1.407-1.406 2.197-3.314 2.197-5.304v-41.42c0-4.142-3.357-7.5-7.5-7.5-4.143,0-7.5,3.358-7.5,7.5v38.314l-13.594,13.59v-6.073c0-4.142-3.357-7.5-7.5-7.5h-5.041c-2.674-15.372-13.405-28.008-27.676-33.376l26.138-26.138c2.929-2.929 2.929-7.678 0-10.606-2.93-2.929-7.678-2.929-10.607,0l-30.856,30.855-30.581-30.582c-2.928-2.93-7.677-2.929-10.606,1.33227e-15-2.929,2.929-2.929,7.678 0.001,10.606l25.866,25.865c-14.271,5.368-25.003,18.004-27.677,33.376h-5.363c-4.143,0-7.5,3.358-7.5,7.5v6.073l-13.594-13.59v-38.314c0-4.142-3.357-7.5-7.5-7.5s-7.5,3.358-7.5,7.5v41.421c0,1.989 0.79,3.897 2.197,5.304l26.397,26.39v15.437h-21.094c-1.989,0-3.896,0.79-5.303,2.196l-22.266,22.263c-2.93,2.929-2.93,7.678-0.001,10.606 1.465,1.465 3.384,2.197 5.304,2.197 1.919,0 3.839-0.732 5.303-2.196l20.069-20.066h17.987v7.316l-27.048,35.25c-1.005,1.31-1.55,2.915-1.55,4.566v43.641c0,4.142 3.357,7.5 7.5,7.5s7.5-3.358 7.5-7.5v-41.095l13.961-18.194c1.996,17.713 12.328,32.933 26.974,41.637 0.225,0.147 0.457,0.278 0.692,0.398 8.16,4.692 17.604,7.392 27.674,7.392 10.078,0 19.53-2.704 27.695-7.404 0.166-0.086 0.328-0.183 0.489-0.282 14.74-8.686 25.148-23.954 27.153-41.739l13.959,18.193v41.095c0,4.142 3.357,7.5 7.5,7.5 4.143,0 7.5-3.358 7.5-7.5v-43.642c0-1.651-0.545-3.256-1.55-4.565l-27.046-35.249v-7.317h17.987l20.067,20.066c1.464,1.465 3.384,2.197 5.303,2.197 1.919,0 3.839-0.732 5.304-2.197 2.931-2.93 2.931-7.679 0.001-10.608zm-104.201-95.839c13.207,0 24.351,8.983 27.656,21.159h-55.312c3.306-12.176 14.449-21.159 27.656-21.159zm-40.863,111.587v-58.749c0-0.002 0-0.004 0-0.005v-16.674h33.203v89.681l-17.686,17.686c-9.441-7.46-15.517-19-15.517-31.939zm29.537,39.133l11.164-11.164 11.165,11.165c-3.55,1.015-7.292,1.569-11.163,1.569-3.872,2.84217e-14-7.615-0.555-11.166-1.57zm51.867-39.133c0,12.94-6.076,24.48-15.518,31.94l-17.684-17.683v-89.685h33.201v16.673c0,0.002 0,0.004 0,0.005v58.75z"/>
</svg>
