<?xml version="1.0" encoding="iso-8859-1"?>
<!-- Generator: Adobe Illustrator 19.0.0, SVG Export Plug-In . SVG Version: 6.00 Build 0)  -->
<svg version="1.1" id="Layer_1" xmlns="http://www.w3.org/2000/svg" xmlns:xlink="http://www.w3.org/1999/xlink" x="0px" y="0px"
	 viewBox="0 0 512.001 512.001" style="enable-background:new 0 0 512.001 512.001;" xml:space="preserve">
<path style="fill:#004FAC;" d="M472.46,231.288l-52.862-51.152c-4.197-4.061-10.891-3.95-14.953,0.246l-35.012,36.184L388.93,28.382
	c0.585-5.707-3.486-10.839-9.176-11.567l-61.483-7.869c-5.793-0.741-11.089,3.354-11.831,9.146l-13.16,102.825V10.575
	C293.28,4.735,288.545,0,282.705,0h-61.721c-5.84,0-10.575,4.735-10.575,10.575v116.434L194.78,17.479
	c-0.825-5.781-6.18-9.799-11.962-8.974l-61.103,8.72c-5.782,0.825-9.799,6.18-8.975,11.962l12.224,85.667L104.208,53.03
	c-1.858-5.537-7.854-8.518-13.39-6.659L43.532,62.244c-5.537,1.858-8.518,7.854-6.659,13.39l24.534,73.079
	c3.836,11.428,6.511,23.216,7.983,35.181l32.413,263.561v36.866c0,15.286,12.392,27.679,27.678,27.679h186.136
	c15.286,0,27.679-12.393,27.679-27.679v-36.866l14.128-50.796c8.013-28.807,23.102-55.155,43.894-76.643l71.388-73.776
	C476.767,242.043,476.657,235.349,472.46,231.288z M155.518,447.455v-42.85c0-21.757,17.638-39.395,39.396-39.395h61.488
	c21.758,0,39.396,17.638,39.396,39.395v42.85H155.518z"/>
<path style="fill:#003F8A;" d="M472.46,231.288l-52.862-51.152c-4.197-4.061-10.891-3.95-14.953,0.246l-35.012,36.184L388.93,28.382
	c0.585-5.707-3.486-10.839-9.176-11.567l-61.483-7.869c-5.793-0.741-11.09,3.354-11.831,9.146l-13.16,102.826V10.575
	C293.28,4.735,288.545,0,282.705,0h-61.721c-0.884,0-1.736,0.12-2.556,0.324V365.21h37.974c21.758,0,39.396,17.638,39.396,39.395
	v42.852h-77.369v64.545h97.19c15.286,0,27.679-12.393,27.679-27.679v-36.866l14.128-50.796
	c8.013-28.807,23.102-55.155,43.894-76.643l71.388-73.776C476.767,242.043,476.657,235.349,472.46,231.288z"/>
<rect x="131.927" y="243.38" style="fill:#FFF5CC;" width="173.355" height="63.484"/>
<rect x="218.61" y="243.38" style="fill:#FFEB99;" width="86.683" height="63.484"/>
<g>
	<circle style="fill:#ACABB1;" cx="254.859" cy="482.429" r="15.5"/>
	<circle style="fill:#ACABB1;" cx="307.15" cy="482.429" r="15.5"/>
</g>
<g>
	<circle style="fill:#C6C5CA;" cx="136.279" cy="482.429" r="15.5"/>
	<circle style="fill:#C6C5CA;" cx="188.571" cy="482.429" r="15.5"/>
</g>
<g>
</g>
<g>
</g>
<g>
</g>
<g>
</g>
<g>
</g>
<g>
</g>
<g>
</g>
<g>
</g>
<g>
</g>
<g>
</g>
<g>
</g>
<g>
</g>
<g>
</g>
<g>
</g>
<g>
</g>
</svg>
