<svg xmlns="http://www.w3.org/2000/svg" viewBox="0 0 642.49 309.36"><defs><style>.cls-1{fill:#3c3c3b;}.cls-2{fill:#706f6f;}.cls-3{fill:#00a4ff;}.cls-4{fill:#f0ebe8;}</style></defs><g id="Layer_2" data-name="Layer 2"><g id="Ñëîé_1" data-name="Ñëîé 1"><path class="cls-1" d="M209.37,254.91c-1.08,30-40.55,54.45-97,54.45-57.2,0-98.86-24.77-98.86-55.32,0-1,0-2,.13-3,13.62,30.49,41.4,49.86,97.44,49.86C168.81,300.94,196.29,283.17,209.37,254.91Z"/><path class="cls-2" d="M221.27,161.11c0,36.1-.4,69-11.9,93.8-13.08,28.26-40.56,46-98.25,46-56,0-83.82-19.37-97.44-49.86C2.81,226.77,1,195.39,1,161.11,1,83.9-17.86,3.35,111.12,3.35,245.31,3.35,221.27,83.9,221.27,161.11Z"/><ellipse class="cls-1" cx="111.47" cy="29.71" rx="64.97" ry="22.13"/><ellipse class="cls-3" cx="111.47" cy="25" rx="21.66" ry="7.53"/><path class="cls-2" d="M623.38,284.73s-30.5,6.56-80.19,6.62h-.66c-49.5-.05-80.61-6.17-82.74-6.59l-1.3-1.45-.05-.06C431.55,249.74,443,179.69,443,179.69L443,179c10.07,2,35,4.49,96.38,4.9,55.1.37,84.79-1.83,100.67-4.09C640.51,182.45,651.31,252.47,623.38,284.73Z"/><path class="cls-4" d="M640.09,180.19c-15.89,2.26-45.57,4.47-100.67,4.09-61.38-.41-86.32-2.85-96.38-4.9L454.75,25c0-13.83,38.86-25,86.77-25s86.77,11.2,86.77,25a7.44,7.44,0,0,1-.24,1.87c.19-.28.37-.55.53-.83l11.49,154A.73.73,0,0,1,640.09,180.19Z"/><path class="cls-1" d="M623.38,284.73l-11.57,13s-22.09,6.13-68.95,6.13-71.41-6.13-71.41-6.13l-11.66-13c2.13.42,33.24,6.54,82.74,6.59h.66C592.88,291.29,623.38,284.73,623.38,284.73Z"/><path class="cls-3" d="M546.66,17.17c0,1-2.37,1.84-5.27,1.84s-5.28-.82-5.28-1.84,2.36-1.84,5.28-1.84S546.66,16.15,546.66,17.17Z"/><path class="cls-3" d="M546.78,30.3c0,1-2.36,1.84-5.28,1.84s-5.27-.83-5.27-1.84,2.37-1.84,5.27-1.84S546.78,29.28,546.78,30.3Z"/><path class="cls-3" d="M524,23.8c0,1-2.36,1.84-5.28,1.84s-5.27-.83-5.27-1.84S515.77,22,518.68,22,524,22.78,524,23.8Z"/><path class="cls-3" d="M570.34,23.8c0,1-2.36,1.84-5.28,1.84s-5.27-.83-5.27-1.84S562.15,22,565.06,22,570.34,22.78,570.34,23.8Z"/></g></g></svg>