<?xml version="1.0" encoding="iso-8859-1"?>
<!-- Generator: Adobe Illustrator 19.0.0, SVG Export Plug-In . SVG Version: 6.00 Build 0)  -->
<svg version="1.1" id="Layer_1" xmlns="http://www.w3.org/2000/svg" xmlns:xlink="http://www.w3.org/1999/xlink" x="0px" y="0px"
	 viewBox="0 0 512 512" style="enable-background:new 0 0 512 512;" xml:space="preserve">
<pattern  x="-50.001" y="651.999" width="39.198" height="39.198" patternUnits="userSpaceOnUse" id="New_Pattern_Swatch_13" viewBox="0 -39.198 39.198 39.198" style="overflow:visible;">
	<g>
		<polygon style="fill:none;" points="0,0 39.198,0 39.198,-39.198 0,-39.198 		"/>
		<polygon style="fill:none;" points="0,-39.198 39.198,-39.198 39.198,0 0,0 		"/>
		<polygon style="fill:#B1B0B2;" points="39.198,-39.198 0,-39.198 0,0 39.198,0 		"/>
	</g>
</pattern>
<path style="fill:#898890;" d="M424.372,336.249l-58.592-186.81c-5.9,13.629-14.264,25.949-24.527,36.402l50.394,160.672
	c2.299,7.329,9.062,12.021,16.358,12.021c1.7,0,3.43-0.255,5.138-0.79C422.178,354.91,427.207,345.287,424.372,336.249z"/>
<path style="fill:#C6C5CA;" d="M87.622,336.249c-2.834,9.037,2.194,18.661,11.23,21.495c1.709,0.536,3.437,0.79,5.138,0.79
	c7.295,0,14.058-4.692,16.358-12.021l50.351-160.535c-10.265-10.422-18.637-22.709-24.558-36.304L87.622,336.249z"/>
<path style="fill:#787680;" d="M349.308,96.922c-2.619-8.35-11.032-13.263-19.427-11.727c1.236,5.427,1.911,11.064,1.911,16.859
	c0,11.269-2.488,21.961-6.913,31.585l16.372,52.202c10.264-10.453,18.627-22.773,24.527-36.402L349.308,96.922z"/>
<path style="fill:#ACABB1;" d="M180.025,102.055c0-5.805,0.677-11.452,1.917-16.886c-8.338-1.439-16.655,3.461-19.257,11.754
	l-16.546,52.753c5.921,13.594,14.293,25.883,24.558,36.304l16.344-52.109C182.55,124.187,180.025,113.413,180.025,102.055z"/>
<pattern  id="SVGID_1_" xlink:href="#New_Pattern_Swatch_13" patternTransform="matrix(1.1433 0 0 -1.1433 2386.9541 -21697.8711)">
</pattern>
<path style="fill:url(#SVGID_1_);" d="M316.583,107.187l8.297,26.452c4.426-9.624,6.913-20.317,6.913-31.586
	c0-5.795-0.674-11.434-1.911-16.859c-0.691,0.126-1.381,0.281-2.068,0.497C318.776,88.526,313.748,98.15,316.583,107.187z"/>
<path style="fill:#CD2A00;" d="M192.464,219.725l-91.631-28.74c-4.342-1.362-9.043-0.942-13.074,1.164
	c-4.031,2.106-7.061,5.728-8.421,10.067L0.786,452.669c-1.36,4.34-0.943,9.043,1.164,13.074c2.107,4.031,5.728,7.061,10.067,8.421
	l91.631,28.74c1.676,0.526,3.407,0.787,5.132,0.787c2.74,0,5.468-0.657,7.942-1.949c4.031-2.106,7.061-5.728,8.421-10.067
	l78.552-250.452C206.528,232.183,201.5,222.559,192.464,219.725z"/>
<path style="fill:#AA2300;" d="M511.209,452.669l-78.553-250.454c-1.36-4.34-4.39-7.96-8.421-10.067
	c-4.03-2.106-8.733-2.524-13.074-1.164l-91.631,28.74c-9.036,2.834-14.065,12.458-11.23,21.495l78.553,250.452
	c1.36,4.34,4.39,7.96,8.421,10.067c2.474,1.292,5.201,1.949,7.942,1.949c1.724,0,3.455-0.261,5.132-0.787l91.631-28.74
	C509.015,471.329,514.043,461.705,511.209,452.669z"/>
<path style="fill:#E0E0E2;" d="M255.908,195.801c-51.692,0-93.746-42.054-93.746-93.746s42.054-93.746,93.746-93.746
	s93.746,42.054,93.746,93.746S307.6,195.801,255.908,195.801z M255.908,42.606c-32.78,0-59.449,26.668-59.449,59.449
	s26.668,59.449,59.449,59.449s59.449-26.668,59.449-59.449S288.689,42.606,255.908,42.606z"/>
<path style="fill:#C6C5CA;" d="M255.908,8.309c-0.383,0-0.761,0.024-1.143,0.029v34.297c0.382-0.007,0.76-0.029,1.143-0.029
	c32.78,0,59.449,26.668,59.449,59.449s-26.668,59.449-59.449,59.449c-0.383,0-0.761-0.022-1.143-0.029v34.297
	c0.382,0.005,0.76,0.029,1.143,0.029c51.692,0,93.746-42.054,93.746-93.746S307.6,8.309,255.908,8.309z"/>
<polygon style="fill:#AA2300;" points="10.625,421.298 134.911,460.525 149.271,414.74 24.985,375.514 "/>
<polygon style="fill:#891C00;" points="362.724,414.741 377.084,460.527 501.371,421.3 487.01,375.514 "/>
<g>
</g>
<g>
</g>
<g>
</g>
<g>
</g>
<g>
</g>
<g>
</g>
<g>
</g>
<g>
</g>
<g>
</g>
<g>
</g>
<g>
</g>
<g>
</g>
<g>
</g>
<g>
</g>
<g>
</g>
</svg>
