<?xml version="1.0" encoding="iso-8859-1"?>
<!-- Generator: Adobe Illustrator 19.0.0, SVG Export Plug-In . SVG Version: 6.00 Build 0)  -->
<svg version="1.1" id="Layer_1" xmlns="http://www.w3.org/2000/svg" xmlns:xlink="http://www.w3.org/1999/xlink" x="0px" y="0px"
	 viewBox="0 0 512 512" style="enable-background:new 0 0 512 512;" xml:space="preserve">
<path style="fill:#D80027;" d="M465.413,69.068C465.413,30.923,434.49,0,396.344,0c-12.323,0-268.376,0-280.698,0
	C77.501,0,46.578,30.923,46.578,69.068v184.393h0.026c-0.007,0.847-0.026,1.69-0.026,2.538
	c0,141.385,93.759,255.999,209.417,255.999s209.417-114.615,209.417-255.999c0-0.848-0.019-1.692-0.026-2.538h0.026V69.068z
	 M388.582,246.363c0,23.072-18.704,41.775-41.775,41.775c-23.32,0-42.224,18.905-42.224,42.224v29.777
	c0,23.319,18.905,42.224,42.224,42.224c6.638,0,10.429,7.619,6.411,12.913c-52.479,69.158-141.935,69.201-194.446,0
	c-4.012-5.288-0.234-12.913,6.411-12.913c23.32,0,42.224-18.905,42.224-42.224v-29.777c0-23.319-18.905-42.224-42.224-42.224
	c-23.072,0-41.775-18.704-41.775-41.775v-59.636c0-24.15,19.578-43.728,43.728-43.728c7.803,0,169.914,0,177.716,0
	c24.15,0,43.728,19.578,43.728,43.728v59.636H388.582z"/>
<g>
	<path style="fill:#A5001E;" d="M465.413,69.068C465.413,30.923,434.49,0,396.344,0c-6.183,0-73.727,0-141.057,0v142.999
		c42.714,0,85.643,0,89.566,0c24.15,0,43.728,19.578,43.728,43.728v59.636c0,23.072-18.704,41.775-41.775,41.775
		c-23.32,0-42.224,18.905-42.224,42.224v29.777c0,23.319,18.905,42.224,42.224,42.224c6.638,0,10.429,7.619,6.411,12.913
		c-26.416,34.813-62.203,52.103-97.93,51.874v44.84c0.237,0.001,0.471,0.011,0.708,0.011c115.658,0,209.417-114.615,209.417-255.999
		c0-0.848-0.019-1.692-0.026-2.538h0.026L465.413,69.068L465.413,69.068z"/>
	<rect x="46.578" y="71.029" style="fill:#A5001E;" width="418.844" height="27.122"/>
</g>
<rect x="255.288" y="71.029" style="fill:#891C00;" width="210.131" height="27.122"/>
<g>
	<path style="fill:#FF7956;" d="M65.363,89.993h-5.399c-2.982,0-5.399-2.417-5.399-5.4c0-2.982,2.418-5.4,5.399-5.4h5.399
		c2.982,0,5.399,2.418,5.399,5.4C70.762,87.576,68.346,89.993,65.363,89.993z"/>
	<path style="fill:#FF7956;" d="M413.948,89.993h-10.893c-2.982,0-5.4-2.417-5.4-5.4c0-2.982,2.417-5.4,5.4-5.4h10.893
		c2.982,0,5.4,2.418,5.4,5.4C419.348,87.576,416.93,89.993,413.948,89.993z M370.375,89.993h-10.893c-2.982,0-5.4-2.417-5.4-5.4
		c0-2.982,2.417-5.4,5.4-5.4h10.893c2.982,0,5.4,2.418,5.4,5.4C375.775,87.576,373.357,89.993,370.375,89.993z M326.802,89.993
		h-10.893c-2.982,0-5.4-2.417-5.4-5.4c0-2.982,2.417-5.4,5.4-5.4h10.893c2.982,0,5.4,2.418,5.4,5.4
		C332.201,87.576,329.784,89.993,326.802,89.993z M283.229,89.993h-10.893c-2.982,0-5.4-2.417-5.4-5.4c0-2.982,2.418-5.4,5.4-5.4
		h10.893c2.982,0,5.4,2.418,5.4,5.4C288.628,87.576,286.211,89.993,283.229,89.993z M239.656,89.993h-10.893
		c-2.982,0-5.399-2.417-5.399-5.4c0-2.982,2.417-5.4,5.399-5.4h10.893c2.982,0,5.399,2.418,5.399,5.4
		C245.054,87.576,242.638,89.993,239.656,89.993z M196.083,89.993h-10.893c-2.982,0-5.399-2.417-5.399-5.4
		c0-2.982,2.417-5.4,5.399-5.4h10.893c2.982,0,5.399,2.418,5.399,5.4C201.481,87.576,199.065,89.993,196.083,89.993z M152.51,89.993
		h-10.893c-2.982,0-5.399-2.417-5.399-5.4c0-2.982,2.418-5.4,5.399-5.4h10.893c2.982,0,5.399,2.418,5.399,5.4
		C157.908,87.576,155.492,89.993,152.51,89.993z M108.937,89.993H98.043c-2.982,0-5.399-2.417-5.399-5.4
		c0-2.982,2.418-5.4,5.399-5.4h10.893c2.982,0,5.399,2.418,5.399,5.4C114.335,87.576,111.919,89.993,108.937,89.993z"/>
	<path style="fill:#FF7956;" d="M452.026,89.993h-5.4c-2.982,0-5.4-2.417-5.4-5.4c0-2.982,2.417-5.4,5.4-5.4h5.4
		c2.982,0,5.4,2.418,5.4,5.4C457.426,87.576,455.009,89.993,452.026,89.993z"/>
</g>
<g>
</g>
<g>
</g>
<g>
</g>
<g>
</g>
<g>
</g>
<g>
</g>
<g>
</g>
<g>
</g>
<g>
</g>
<g>
</g>
<g>
</g>
<g>
</g>
<g>
</g>
<g>
</g>
<g>
</g>
</svg>
