<?xml version="1.0" encoding="utf-8"?>
<!-- Generator: Adobe Illustrator 15.0.0, SVG Export Plug-In  -->
<!DOCTYPE svg PUBLIC "-//W3C//DTD SVG 1.1//EN" "http://www.w3.org/Graphics/SVG/1.1/DTD/svg11.dtd" [
	<!ENTITY ns_flows "http://ns.adobe.com/Flows/1.0/">
]>
<svg version="1.1"
	 xmlns="http://www.w3.org/2000/svg" xmlns:xlink="http://www.w3.org/1999/xlink" xmlns:a="http://ns.adobe.com/AdobeSVGViewerExtensions/3.0/"
	 x="0px" y="0px" width="92px" height="93px" viewBox="0 -0.667 92 93" enable-background="new 0 -0.667 92 93"
	 xml:space="preserve">
<defs>
</defs>
<circle fill="none" stroke="#E30613" stroke-width="5" stroke-miterlimit="10" cx="46" cy="46.333" r="43.333"/>
<circle fill="#FFFFFF" stroke="#E30613" stroke-miterlimit="10" cx="46" cy="46.667" r="39.333"/>
<path fill="#E30613" d="M18.688,30.638c0.361-0.186,0.85-0.546,1.186-1.024c0.364-0.515,0.344-0.938,0.021-1.167
	c-0.31-0.217-0.651-0.107-1.278,0.343c-0.877,0.616-1.717,0.837-2.437,0.328c-0.846-0.598-0.981-1.764-0.16-2.924
	c0.4-0.567,0.797-0.893,1.144-1.088l0.721,0.884c-0.23,0.124-0.625,0.385-0.963,0.862c-0.344,0.486-0.281,0.882-0.031,1.059
	c0.315,0.224,0.646,0.05,1.348-0.425c0.941-0.646,1.683-0.729,2.381-0.235c0.831,0.587,1.09,1.719,0.129,3.079
	c-0.4,0.566-0.95,1.015-1.301,1.185L18.688,30.638z"/>
<path fill="#E30613" d="M18.255,23.57c0.245-0.352,0.622-0.813,1.208-1.412c0.592-0.604,1.129-0.921,1.643-0.983
	c0.496-0.07,1.032,0.104,1.456,0.519c0.425,0.416,0.658,0.909,0.639,1.406c-0.019,0.637-0.356,1.276-0.923,1.854
	c-0.127,0.128-0.246,0.237-0.354,0.309l1.555,1.523l-0.951,0.971L18.255,23.57z M21.172,24.526c0.102-0.064,0.203-0.154,0.347-0.302
	c0.511-0.521,0.562-1.1,0.125-1.528c-0.399-0.391-0.907-0.347-1.392,0.148c-0.189,0.192-0.309,0.34-0.358,0.43L21.172,24.526z"/>
<path fill="#E30613" d="M27.431,20.054l-1.79,1.334l0.861,1.155l1.998-1.491l0.674,0.903l-3.098,2.309l-3.627-4.864l2.996-2.234
	l0.672,0.903l-1.898,1.415l0.754,1.011l1.789-1.335L27.431,20.054z"/>
<path fill="#E30613" d="M33.643,19.378c-0.162,0.216-0.606,0.61-1.254,0.947c-1.86,0.971-3.427,0.304-4.227-1.229
	c-0.957-1.837-0.176-3.533,1.453-4.384c0.631-0.328,1.172-0.459,1.45-0.45l0.244,1.091c-0.294,0.021-0.688,0.104-1.126,0.333
	c-0.959,0.5-1.405,1.474-0.78,2.673c0.562,1.077,1.555,1.423,2.632,0.861c0.376-0.195,0.738-0.476,0.932-0.709L33.643,19.378z"/>
<path fill="#E30613" d="M33.57,13.17l2.115,5.682l-1.281,0.478l-2.115-5.683L33.57,13.17z"/>
<path fill="#E30613" d="M37.624,16.635l-0.078,1.615l-1.379,0.312l0.463-6.327l1.758-0.396l3.181,5.503l-1.449,0.327l-0.8-1.417
	L37.624,16.635z M38.9,15.295l-0.652-1.173c-0.186-0.327-0.391-0.743-0.557-1.074l-0.018,0.004
	c-0.009,0.372,0.004,0.839-0.016,1.203l-0.066,1.335L38.9,15.295z"/>
<path fill="#E30613" d="M41.769,11.294l1.366-0.08l0.285,4.906l2.408-0.139l0.066,1.15l-3.773,0.22L41.769,11.294z"/>
<path fill="#E30613" d="M54.181,15.103c-0.341,1.968-1.726,2.942-3.48,2.637c-1.765-0.307-2.577-1.827-2.28-3.538
	c0.312-1.79,1.695-2.929,3.451-2.624C53.705,11.897,54.469,13.445,54.181,15.103z M49.852,14.424
	c-0.205,1.179,0.202,2.099,1.105,2.255c0.914,0.159,1.588-0.619,1.789-1.78c0.188-1.082-0.157-2.091-1.088-2.253
	C50.736,12.486,50.054,13.263,49.852,14.424z"/>
<path fill="#E30613" d="M56.31,12.712l3.478,1.261l-0.383,1.058l-2.191-0.795l-0.473,1.304l2.049,0.742l-0.381,1.049l-2.048-0.742
	l-0.831,2.293l-1.286-0.467L56.31,12.712z"/>
<path fill="#E30613" d="M61.348,14.693l3.248,1.762l-0.536,0.988l-2.046-1.11l-0.661,1.216l1.913,1.038l-0.532,0.98l-1.912-1.038
	l-1.163,2.141l-1.201-0.651L61.348,14.693z"/>
<path fill="#E30613" d="M66.029,17.384l2.951,2.229l-0.678,0.897l-1.859-1.405l-0.836,1.106l1.738,1.313l-0.674,0.89l-1.736-1.312
	l-1.471,1.945l-1.091-0.824L66.029,17.384z"/>
<path fill="#E30613" d="M70.293,25.792l-1.559-1.598L67.703,25.2l1.742,1.785l-0.805,0.786l-2.698-2.765l4.342-4.237l2.609,2.673
	l-0.805,0.786l-1.653-1.694l-0.902,0.88l1.559,1.598L70.293,25.792z"/>
<path fill="#E30613" d="M73.943,24.82c0.314,0.318,0.733,0.815,1.16,1.417c0.521,0.734,0.773,1.325,0.746,1.875
	c-0.022,0.468-0.26,0.878-0.715,1.201c-0.623,0.442-1.374,0.302-1.83-0.014l-0.021,0.016c0.105,0.443-0.082,0.863-0.449,1.31
	c-0.455,0.556-0.996,1.16-1.119,1.391l-0.813-1.145c0.096-0.177,0.402-0.583,0.912-1.154c0.525-0.582,0.535-0.909,0.215-1.376
	l-0.234-0.331l-1.944,1.38l-0.786-1.108L73.943,24.82z M72.603,27.438l0.313,0.44c0.395,0.557,0.908,0.69,1.341,0.383
	c0.447-0.317,0.463-0.792,0.1-1.306c-0.193-0.271-0.316-0.416-0.396-0.48L72.603,27.438z"/>
<rect id="_x3C_Slice_x3E__1_" fill="none" width="92" height="92.333"/>
<path fill="#E30613" d="M72.452,63.285c-0.362,0.186-0.851,0.545-1.188,1.022c-0.363,0.514-0.344,0.937-0.02,1.166
	c0.309,0.218,0.65,0.108,1.277-0.341c0.877-0.614,1.719-0.834,2.438-0.325c0.845,0.6,0.979,1.765,0.156,2.925
	c-0.401,0.565-0.798,0.891-1.146,1.086l-0.719-0.885c0.23-0.123,0.626-0.385,0.964-0.861c0.344-0.485,0.283-0.881,0.033-1.059
	c-0.316-0.223-0.648-0.05-1.349,0.425c-0.942,0.645-1.685,0.725-2.382,0.23c-0.83-0.589-1.088-1.72-0.124-3.078
	c0.401-0.565,0.95-1.015,1.302-1.184L72.452,63.285z"/>
<path fill="#E30613" d="M72.876,70.353c-0.245,0.352-0.623,0.813-1.209,1.409c-0.593,0.604-1.13,0.921-1.646,0.981
	c-0.496,0.068-1.031-0.105-1.455-0.521s-0.656-0.91-0.637-1.406c0.021-0.637,0.358-1.275,0.926-1.854
	c0.126-0.128,0.246-0.237,0.354-0.308l-1.553-1.526l0.951-0.969L72.876,70.353z M69.959,69.392c-0.1,0.064-0.201,0.154-0.346,0.302
	c-0.512,0.521-0.563,1.099-0.127,1.528c0.398,0.391,0.906,0.348,1.391-0.146c0.19-0.191,0.311-0.34,0.359-0.43L69.959,69.392z"/>
<path fill="#E30613" d="M63.696,73.858l1.791-1.333l-0.859-1.155l-2.001,1.488l-0.672-0.903l3.1-2.305l3.621,4.869l-2.998,2.23
	l-0.672-0.903l1.9-1.413l-0.752-1.012l-1.791,1.332L63.696,73.858z"/>
<path fill="#E30613" d="M57.483,74.525c0.161-0.215,0.606-0.609,1.254-0.945c1.862-0.969,3.428-0.299,4.226,1.234
	c0.955,1.838,0.172,3.534-1.458,4.383c-0.632,0.326-1.173,0.457-1.452,0.448l-0.242-1.092c0.293-0.021,0.688-0.103,1.127-0.331
	c0.959-0.499,1.406-1.473,0.783-2.672c-0.561-1.078-1.553-1.426-2.631-0.864c-0.376,0.194-0.738,0.475-0.932,0.708L57.483,74.525z"
	/>
<path fill="#E30613" d="M57.547,80.734l-2.107-5.686l1.281-0.475l2.109,5.685L57.547,80.734z"/>
<path fill="#E30613" d="M53.498,77.263l0.08-1.615l1.379-0.31l-0.471,6.327l-1.758,0.394l-3.175-5.508l1.45-0.325l0.798,1.418
	L53.498,77.263z M52.22,78.601l0.651,1.174c0.184,0.328,0.389,0.744,0.555,1.076l0.018-0.004c0.01-0.372-0.004-0.84,0.017-1.203
	l0.069-1.336L52.22,78.601z"/>
<path fill="#E30613" d="M49.347,82.599l-1.366,0.078l-0.278-4.907l-2.409,0.136l-0.065-1.15l3.774-0.214L49.347,82.599z"/>
<path fill="#E30613" d="M36.939,78.775c0.344-1.969,1.729-2.94,3.483-2.633c1.764,0.309,2.575,1.83,2.275,3.541
	c-0.313,1.789-1.699,2.926-3.454,2.619C37.41,81.981,36.648,80.432,36.939,78.775z M41.267,79.458
	c0.206-1.178-0.198-2.099-1.103-2.257c-0.912-0.159-1.588,0.618-1.791,1.778c-0.189,1.081,0.154,2.092,1.086,2.254
	C40.381,81.396,41.063,80.621,41.267,79.458z"/>
<path fill="#E30613" d="M34.808,81.164l-3.476-1.266l0.384-1.057l2.191,0.797l0.474-1.303l-2.048-0.744l0.382-1.049l2.047,0.745
	l0.834-2.292l1.285,0.468L34.808,81.164z"/>
<path fill="#E30613" d="M29.771,79.175l-3.245-1.766l0.537-0.987l2.045,1.112l0.663-1.215l-1.912-1.041l0.533-0.979l1.911,1.04
	l1.165-2.139l1.2,0.653L29.771,79.175z"/>
<path fill="#E30613" d="M25.093,76.478l-2.948-2.233l0.68-0.896l1.857,1.407l0.838-1.104l-1.736-1.315l0.674-0.889l1.735,1.314
	l1.473-1.943l1.091,0.826L25.093,76.478z"/>
<path fill="#E30613" d="M20.84,68.064l1.557,1.601l1.033-1.005l-1.74-1.787l0.806-0.785l2.694,2.768l-4.348,4.232l-2.605-2.677
	l0.807-0.785l1.65,1.696l0.903-0.879l-1.557-1.6L20.84,68.064z"/>
<path fill="#E30613" d="M17.188,69.032c-0.313-0.318-0.73-0.816-1.156-1.418c-0.52-0.735-0.773-1.325-0.744-1.877
	c0.022-0.467,0.262-0.877,0.716-1.199c0.624-0.441,1.374-0.301,1.83,0.017l0.021-0.016c-0.104-0.443,0.083-0.863,0.45-1.311
	c0.456-0.555,0.998-1.158,1.122-1.389l0.811,1.146c-0.095,0.177-0.403,0.583-0.914,1.153c-0.525,0.581-0.536,0.908-0.217,1.375
	l0.235,0.332l1.945-1.377l0.784,1.109L17.188,69.032z M18.533,66.416l-0.313-0.439c-0.395-0.559-0.907-0.691-1.34-0.385
	c-0.448,0.316-0.465,0.792-0.102,1.306c0.192,0.271,0.316,0.415,0.396,0.48L18.533,66.416z"/>
<circle fill="none" stroke="#E30613" stroke-width="2" stroke-miterlimit="10" cx="46" cy="46.333" r="23.667"/>
<g>
	<polygon fill="#E30613" points="89.056,61.286 46.125,59.333 3.195,61.286 4.5,46.667 3.195,32.048 46.125,34 89.056,32.048 
		87.75,46.677 	"/>
</g>
</svg>
