<?xml version="1.0" encoding="utf-8"?>
<!-- Generator: Adobe Illustrator 15.0.0, SVG Export Plug-In  -->
<!DOCTYPE svg PUBLIC "-//W3C//DTD SVG 1.1//EN" "http://www.w3.org/Graphics/SVG/1.1/DTD/svg11.dtd" [
	<!ENTITY ns_flows "http://ns.adobe.com/Flows/1.0/">
]>
<svg version="1.1"
	 xmlns="http://www.w3.org/2000/svg" xmlns:xlink="http://www.w3.org/1999/xlink" xmlns:a="http://ns.adobe.com/AdobeSVGViewerExtensions/3.0/"
	 x="0px" y="0px" width="285px" height="22px" viewBox="42.668 0 285 22" enable-background="new 42.668 0 285 22"
	 xml:space="preserve">
<defs>
</defs>
<g opacity="0.38">
	<path fill="#FFFFFF" d="M399.502,12.247c-16.606-0.691-16.454-7.997-33.074-7.997c-16.621,0-16.621,8-33.241,8
		c-16.622,0-16.622-8-33.243-8c-16.619,0-16.619,8-33.237,8c-16.619,0-16.619-8-33.238-8c-16.621,0-16.621,8-33.242,8
		s-16.621-8-33.242-8c-16.622,0-16.622,8-33.245,8c-16.622,0-16.622-8-33.243-8c-16.624,0-16.624,8-33.248,8
		S50.444,3.566,33.834,4.254C33.146,4.282,38,8.939,38,9.628c0,0.688-8,0.688-8,1.375s8,0.687,8,1.374c0,0.69-8,0.69-8,1.379
		c0,0.688,8,0.688,8,1.376c0,0.689-8,0.689-8,1.378c0,0.69,8,0.69,8,1.38c0,0.689-8,0.689-8,1.378c0,0.691,8,0.691,8,1.381
		c0,0.691-8,0.691-8,1.383s3.475-2.642,4.167-2.613c16.605,0.691,16.454,7.997,33.074,7.997c16.621,0,16.621-8,33.242-8
		c16.621,0,16.621,8,33.242,8c16.619,0,16.619-8,33.237-8c16.62,0,16.62,8,33.239,8c16.621,0,16.621-8,33.242-8s16.621,8,33.242,8
		c16.622,0,16.622-8,33.244-8s16.622,8,33.243,8c16.624,0,16.624-8,33.248-8s16.804,8.685,33.414,7.997
		c0.688-0.028-4.166-4.686-4.166-5.374c0-0.688,8-0.688,8-1.375s-8-0.687-8-1.374c0-0.69,8-0.69,8-1.379c0-0.688-8-0.688-8-1.376
		c0-0.689,8-0.689,8-1.378c0-0.69-8-0.69-8-1.38c0-0.689,8-0.689,8-1.378c0-0.691-8-0.691-8-1.381c0-0.691,0.042-0.48,0.309,0.158
		C396.514,12.462,400.193,12.276,399.502,12.247z"/>
</g>
<g>
	<path fill="#FFFFFF" d="M388.836,16.247c-16.606-0.691-16.454-7.997-33.074-7.997c-16.621,0-16.621,8-33.241,8
		c-16.622,0-16.622-8-33.243-8c-16.619,0-16.619,8-33.237,8c-16.619,0-16.619-8-33.238-8c-16.621,0-16.621,8-33.242,8
		s-16.621-8-33.242-8c-16.622,0-16.622,8-33.245,8c-16.622,0-16.622-8-33.243-8c-16.624,0-16.624,8-33.248,8
		S39.778,7.566,23.168,8.254c-0.688,0.028,4.166,4.686,4.166,5.374c0,0.688-8,0.688-8,1.375s8,0.687,8,1.374c0,0.69-8,0.69-8,1.379
		c0,0.688,8,0.688,8,1.376c0,0.689-8,0.689-8,1.378c0,0.69,8,0.69,8,1.38c0,0.689-8,0.689-8,1.378c0,0.691,8,0.691,8,1.381
		c0,0.691-8,0.691-8,1.383s3.475-2.642,4.167-2.613c16.605,0.691,16.454,7.997,33.074,7.997c16.621,0,16.621-8,33.242-8
		c16.621,0,16.621,8,33.242,8c16.619,0,16.619-8,33.237-8c16.62,0,16.62,8,33.239,8c16.621,0,16.621-8,33.242-8s16.621,8,33.242,8
		c16.622,0,16.622-8,33.244-8s16.622,8,33.243,8c16.624,0,16.624-8,33.248-8s16.804,8.685,33.414,7.997
		c0.688-0.028-4.166-4.686-4.166-5.374c0-0.688,8-0.688,8-1.375s-8-0.687-8-1.374c0-0.69,8-0.69,8-1.379c0-0.688-8-0.688-8-1.376
		c0-0.689,8-0.689,8-1.378c0-0.69-8-0.69-8-1.38c0-0.689,8-0.689,8-1.378c0-0.691-8-0.691-8-1.381c0-0.691,0.042-0.48,0.309,0.158
		C385.848,16.462,389.527,16.276,388.836,16.247z"/>
</g>
<g opacity="0.62">
	<path fill="#FFFFFF" d="M378.176,12.747c-17.001-0.691-16.852-7.997-33.866-7.997s-17.015,8-34.03,8s-17.016-8-34.03-8
		c-17.013,0-17.013,8-34.025,8s-17.013-8-34.026-8c-17.016,0-17.016,8-34.03,8c-17.016,0-17.016-8-34.031-8
		c-17.016,0-17.016,8-34.033,8c-17.016,0-17.016-8-34.031-8c-17.018,0-17.018,8-34.036,8S20.842,4.065,3.838,4.753
		C3.15,4.781,8,9.438,8,10.127c0,0.687-8,0.687-8,1.375c0,0.687,8,0.687,8,1.374c0,0.689-8,0.689-8,1.379c0,0.688,8,0.688,8,1.376
		c0,0.689-8,0.689-8,1.378c0,0.69,8,0.69,8,1.38c0,0.689-8,0.689-8,1.378c0,0.69,8,0.69,8,1.381c0,0.692-8,0.692-8,1.383
		c0,0.692,3.471-2.641,4.163-2.613c17,0.691,16.852,7.997,33.866,7.997c17.015,0,17.015-8,34.03-8s17.015,8,34.031,8
		c17.013,0,17.013-8,34.025-8c17.013,0,17.013,8,34.026,8c17.016,0,17.016-8,34.03-8c17.016,0,17.016,8,34.031,8
		c17.017,0,17.017-8,34.032-8s17.016,8,34.031,8c17.018,0,17.018-8,34.036-8s17.193,8.685,34.198,7.997
		c0.688-0.028-4.162-4.685-4.162-5.374c0-0.687,8-0.687,8-1.375c0-0.687-8-0.687-8-1.374c0-0.689,8-0.689,8-1.379
		c0-0.688-8-0.688-8-1.376c0-0.689,8-0.689,8-1.378c0-0.69-8-0.69-8-1.38c0-0.689,8-0.689,8-1.378c0-0.69-8-0.69-8-1.381
		c0-0.692,0.044-0.472,0.313,0.166C375.189,12.968,378.866,12.775,378.176,12.747z"/>
</g>
<rect id="_x3C_Slice_x3E__1_" x="42.668" fill="none" width="285" height="22"/>
</svg>
