<?xml version="1.0" encoding="utf-8"?>
<!-- Generator: Adobe Illustrator 15.0.0, SVG Export Plug-In  -->
<!DOCTYPE svg PUBLIC "-//W3C//DTD SVG 1.1//EN" "http://www.w3.org/Graphics/SVG/1.1/DTD/svg11.dtd" [
	<!ENTITY ns_flows "http://ns.adobe.com/Flows/1.0/">
]>
<svg version="1.1"
	 xmlns="http://www.w3.org/2000/svg" xmlns:xlink="http://www.w3.org/1999/xlink" xmlns:a="http://ns.adobe.com/AdobeSVGViewerExtensions/3.0/"
	 x="0px" y="0px" width="358px" height="267px" viewBox="51 222 358 267" enable-background="new 51 222 358 267"
	 xml:space="preserve">
<defs>
</defs>
<path fill="#F3446F" d="M414.5,224.602c0,0-7.204-0.596-14.635,0.181c-16.191,1.692-36.365-0.181-81.507,93.268
	c-7.692,16.45-24.108,46.7-24.108,46.7C270,413,215,479.75,151.958,479.577C97.292,480.91,62.5,433,49.5,409.75L48,492h363"/>
<rect id="_x3C_Slice_x3E__1_" x="51" y="222" fill="none" width="358" height="267"/>
<path opacity="0.81" fill="#00FFFF" d="M410,318.666c-7.151,2.333-29.667,8.334-67.334,31.645
	c-33.565,20.677-103.321,69.425-136.636,85.418c-13.477,6.47-23.207,10.902-43.783,16.604C87.666,473,48,468.625,48,468.625L48,494
	h370.5l1-175"/>
</svg>
